<svg width="28" height="28" viewBox="0 0 28 28" fill="none" xmlns="http://www.w3.org/2000/svg">
<g clip-path="url(#clip0_3703_584)">
<path d="M11.477 21.3722C10.0737 21.3722 8.67035 20.8401 7.60612 19.7706C5.47244 17.6369 5.47244 14.1573 7.60612 12.0236L12.3952 7.22938C12.703 6.92159 13.1986 6.92159 13.5011 7.22938C13.8037 7.53717 13.8089 8.03277 13.5011 8.33535L8.70687 13.1296C7.18356 14.6529 7.18356 17.1361 8.70687 18.6647C10.2302 20.188 12.7134 20.188 14.2419 18.6647L19.777 13.1296C20.6638 12.2271 20.6638 10.7507 19.777 9.84301C18.8692 8.91963 17.3772 8.9092 16.4591 9.81692L10.9292 15.3468C10.7832 15.4928 10.6997 15.6911 10.6997 15.8997C10.6997 16.1084 10.7832 16.3067 10.9292 16.4527C11.2266 16.7501 11.7431 16.7501 12.0352 16.4527L16.8295 11.6585C17.1373 11.3507 17.6329 11.3507 17.9354 11.6585C18.2432 11.9663 18.2432 12.4619 17.9354 12.7644L13.1412 17.5587C12.6977 18.0021 12.1082 18.2473 11.4822 18.2473C10.8562 18.2473 10.2667 18.0021 9.82327 17.5587C9.37984 17.1153 9.13465 16.5258 9.13465 15.8997C9.13465 15.2737 9.37984 14.6842 9.82327 14.2408L15.3479 8.70574C16.8921 7.18765 19.3701 7.20851 20.8882 8.74748C22.375 10.2604 22.375 12.7227 20.8882 14.2356L15.3479 19.7758C14.2784 20.8453 12.8751 21.3774 11.477 21.3774V21.3722Z" fill="#1D4ED8"/>
</g>
<defs>
<clipPath id="clip0_3703_584">
<rect width="16" height="14.3724" fill="white" transform="translate(6 7)"/>
</clipPath>
</defs>
</svg>
