<svg width="28" height="28" viewBox="0 0 28 28" fill="none" xmlns="http://www.w3.org/2000/svg">
<path fill-rule="evenodd" clip-rule="evenodd" d="M21.0203 9.88722V7.16572L21.0611 7.13396C21.0611 6.95352 20.9894 6.78046 20.8618 6.65286C20.7342 6.52527 20.5612 6.45359 20.3807 6.45359C20.2003 6.45359 20.0272 6.52527 19.8996 6.65286C19.772 6.78046 19.7004 6.95352 19.7004 7.13396V7.99576C18.2679 6.70887 16.4097 5.99793 14.4841 6C12.5 6.00241 10.5977 6.79167 9.19471 8.1947C7.79168 9.59773 7.0024 11.5 7 13.4841C7 13.6646 7.07169 13.8376 7.19929 13.9652C7.32688 14.0928 7.49993 14.1645 7.68038 14.1645C7.86082 14.1645 8.03388 14.0928 8.16148 13.9652C8.28907 13.8376 8.36075 13.6646 8.36075 13.4841C8.36315 11.8609 9.00906 10.3047 10.1569 9.1569C11.3047 8.00907 12.8609 7.36316 14.4841 7.36076C16.1514 7.36797 17.7517 8.01783 18.9519 9.17509H18.1128C17.9324 9.17509 17.7593 9.24677 17.6317 9.37437C17.5041 9.50196 17.4324 9.67502 17.4324 9.85547C17.4324 10.0359 17.5041 10.209 17.6317 10.3366C17.7593 10.4642 17.9324 10.5358 18.1128 10.5358H20.3807C20.4229 10.5405 20.4655 10.5405 20.5077 10.5358C20.5465 10.5302 20.5845 10.5203 20.621 10.5062L20.6167 10.5086C20.6253 10.5051 20.6339 10.5014 20.6423 10.4974L20.6574 10.4905C20.6947 10.4755 20.7297 10.4557 20.7618 10.4315C20.798 10.4082 20.8315 10.3808 20.8615 10.3499C20.8852 10.3247 20.9064 10.2973 20.925 10.2682C20.9506 10.2314 20.9719 10.1919 20.9885 10.1503C21.0038 10.1203 21.0145 10.0882 21.0203 10.055C21.0224 10.0385 21.0224 10.0217 21.0203 10.0052C21.025 9.96599 21.025 9.92639 21.0203 9.88722ZM21.9274 13.5159C21.925 15.5 21.1358 17.4022 19.7327 18.8053C18.3297 20.2083 16.4275 20.9976 14.4433 21C12.5178 21.0021 10.6596 20.2912 9.22723 19.0044V19.866C9.22723 20.0465 9.15556 20.2195 9.02796 20.3471C8.90036 20.4747 8.7273 20.5464 8.54686 20.5464C8.36641 20.5464 8.19336 20.4747 8.06577 20.3471C7.93817 20.2195 7.86648 20.0465 7.86648 19.866V17.1445C7.86178 17.1054 7.86178 17.0658 7.86648 17.0266C7.86434 17.01 7.86434 16.9933 7.86648 16.9767C7.87223 16.9435 7.88294 16.9114 7.89824 16.8814C7.91485 16.8398 7.93617 16.8003 7.96174 16.7635C7.98036 16.7344 8.00161 16.7071 8.02524 16.6819C8.05526 16.6509 8.08874 16.6235 8.12503 16.6002C8.15704 16.576 8.19213 16.5562 8.22936 16.5412C8.27669 16.5187 8.32714 16.5034 8.37903 16.4959C8.42124 16.4912 8.46383 16.4912 8.50604 16.4959H10.774C10.8641 16.4904 10.9544 16.5029 11.0396 16.5326C11.1248 16.5624 11.2033 16.6088 11.2704 16.6691C11.3376 16.7295 11.392 16.8026 11.4306 16.8842C11.4692 16.9658 11.4911 17.0543 11.4952 17.1445C11.4952 17.325 11.4235 17.498 11.2959 17.6256C11.1683 17.7532 10.9952 17.8249 10.8148 17.8249H9.22723L9.9755 17.8249C11.1757 18.9822 12.776 19.632 14.4433 19.6392C16.0666 19.6368 17.6227 18.9909 18.7705 17.8431C19.9184 16.6953 20.5643 15.1391 20.5667 13.5159C20.5667 13.3354 20.6384 13.1623 20.766 13.0348C20.8936 12.9072 21.0666 12.8355 21.2471 12.8355C21.4275 12.8355 21.6006 12.9072 21.7282 13.0348C21.8558 13.1623 21.9274 13.3354 21.9274 13.5159Z" fill="#B45309"/>
</svg>
