<svg width="28" height="28" viewBox="0 0 28 28" fill="none" xmlns="http://www.w3.org/2000/svg">
<path fill-rule="evenodd" clip-rule="evenodd" d="M17.129 7.45161H18.3387C19.8048 7.45161 21 8.64677 21 10.1129V18.3387C21 19.8097 19.8048 21 18.3387 21H8.66129C7.19516 21 6 19.8097 6 18.3387V10.1129C6 8.64677 7.19516 7.45161 8.66129 7.45161H9.87097V6.72581C9.87097 6.32903 10.1952 6 10.5968 6C10.9984 6 11.3226 6.32903 11.3226 6.72581V7.45161H15.6774V6.72581C15.6774 6.32903 16.0016 6 16.4032 6C16.8048 6 17.129 6.32903 17.129 6.72581V7.45161ZM18.3387 19.5484C19.0065 19.5484 19.5484 19.0065 19.5484 18.3387V13.2581H7.45161V18.3387C7.45161 19.0065 7.99355 19.5484 8.66129 19.5484H18.3387ZM7.45161 11.8065H19.5484V10.1129C19.5484 9.45 19.0065 8.90323 18.3387 8.90323H17.129V9.62903C17.129 10.0306 16.8048 10.3548 16.4032 10.3548C16.0016 10.3548 15.6774 10.0306 15.6774 9.62903V8.90323H11.3226V9.62903C11.3226 10.0306 10.9984 10.3548 10.5968 10.3548C10.1952 10.3548 9.87097 10.0306 9.87097 9.62903V8.90323H8.66129C7.99355 8.90323 7.45161 9.45 7.45161 10.1129V11.8065ZM9.62903 14.7097H10.5968C10.9976 14.7097 11.3226 15.0346 11.3226 15.4355V16.4032C11.3226 16.8041 10.9976 17.129 10.5968 17.129H9.62903C9.22818 17.129 8.90323 16.8041 8.90323 16.4032V15.4355C8.90323 15.0346 9.22818 14.7097 9.62903 14.7097Z" fill="#B45309"/>
</svg>
