<svg width="28" height="28" viewBox="0 0 28 28" fill="none" xmlns="http://www.w3.org/2000/svg">
<path fill-rule="evenodd" clip-rule="evenodd" d="M13.4289 21.9768C13.6838 22.1249 13.9669 22.218 14.26 22.25C14.5528 22.2168 14.8355 22.1234 15.0902 21.9753C15.345 21.8273 15.5663 21.628 15.7401 21.3901C15.8566 21.2504 15.9873 21.1229 16.13 21.01C16.321 21.0322 16.5088 21.0759 16.69 21.1401C16.9558 21.259 17.2438 21.3203 17.535 21.3203C17.8262 21.3203 18.1142 21.259 18.38 21.1401C18.6155 20.9657 18.812 20.7439 18.9567 20.489C19.1013 20.2341 19.191 19.9518 19.22 19.6602C19.253 19.478 19.3067 19.3001 19.38 19.1301C19.5564 19.0507 19.7408 18.9905 19.9301 18.9502C20.2195 18.9223 20.4998 18.8339 20.753 18.6909C21.0062 18.548 21.2266 18.3535 21.4 18.1201C21.5219 17.8568 21.585 17.5701 21.585 17.28C21.585 16.9899 21.5219 16.7035 21.4 16.4402C21.3389 16.2581 21.2953 16.0705 21.27 15.8801C21.3825 15.734 21.5098 15.5998 21.65 15.48C21.8914 15.3065 22.0936 15.0843 22.2435 14.8276C22.3934 14.5709 22.4876 14.2855 22.52 13.99C22.4862 13.6963 22.3913 13.4128 22.2415 13.158C22.0917 12.9031 21.8902 12.6824 21.65 12.51C21.5128 12.3907 21.3857 12.2604 21.27 12.1201C21.2933 11.9294 21.3369 11.7416 21.4 11.5601C21.5189 11.2942 21.5803 11.0063 21.5803 10.7151C21.5803 10.4239 21.5189 10.136 21.4 9.87012C21.2276 9.63486 21.0076 9.43842 20.7543 9.2937C20.5011 9.14899 20.2203 9.05915 19.9301 9.03003C19.7444 8.99826 19.563 8.94464 19.39 8.87012C19.3086 8.69537 19.2514 8.51028 19.22 8.32007C19.1922 8.02952 19.1028 7.7483 18.958 7.49487C18.8132 7.24145 18.6162 7.02163 18.38 6.8501C18.1167 6.72826 17.8301 6.66504 17.54 6.66504C17.2499 6.66504 16.9633 6.72826 16.7 6.8501C16.523 6.91679 16.3382 6.96036 16.15 6.97998C15.9962 6.87313 15.8583 6.74533 15.7401 6.6001C15.5668 6.36077 15.3458 6.15999 15.0911 6.01025C14.8363 5.86052 14.5534 5.76497 14.26 5.72998C13.9663 5.76378 13.6829 5.85872 13.428 6.00854C13.1732 6.15837 12.9524 6.3599 12.78 6.6001C12.6609 6.73745 12.5304 6.86445 12.39 6.97998C12.196 6.95688 12.0049 6.91342 11.82 6.8501C11.5542 6.73122 11.2663 6.66968 10.975 6.66968C10.6838 6.66968 10.3959 6.73122 10.13 6.8501C9.89475 7.02253 9.69843 7.2426 9.55371 7.49585C9.409 7.7491 9.31916 8.02984 9.29004 8.32007C9.25598 8.50412 9.20576 8.68486 9.14001 8.86011C8.96116 8.93989 8.77304 8.99692 8.58002 9.03003C8.29027 9.06095 8.01008 9.15157 7.75708 9.29614C7.50408 9.44071 7.28379 9.63619 7.11005 9.87012C6.99382 10.1349 6.93378 10.4208 6.93378 10.71C6.93378 10.9991 6.99382 11.2853 7.11005 11.55C7.1768 11.7277 7.2237 11.9122 7.25 12.1001C7.13786 12.2495 7.01051 12.3869 6.87 12.51C6.6298 12.6824 6.42833 12.9031 6.2785 13.158C6.12867 13.4128 6.0338 13.6963 6 13.99C6.03245 14.2855 6.12673 14.5709 6.27661 14.8276C6.42649 15.0843 6.62863 15.3065 6.87 15.48C7.00148 15.5984 7.12513 15.7255 7.24005 15.8601C7.22671 16.0557 7.18284 16.2481 7.11005 16.4302C6.99117 16.696 6.92969 16.9839 6.92969 17.2751C6.92969 17.5664 6.99117 17.8543 7.11005 18.1201C7.28446 18.3557 7.50621 18.5521 7.76111 18.6968C8.016 18.8414 8.29838 18.931 8.59003 18.96C8.77092 18.9936 8.9483 19.044 9.12 19.1101C9.20372 19.2883 9.26426 19.4766 9.30005 19.6702C9.32917 19.9593 9.41792 20.2392 9.56079 20.4922C9.70366 20.7452 9.89748 20.9659 10.13 21.1401C10.3933 21.262 10.6799 21.325 10.97 21.325C11.2601 21.325 11.5467 21.262 11.81 21.1401C11.991 21.0731 12.1788 21.026 12.37 21C12.5195 21.1158 12.6569 21.2466 12.78 21.3901C12.9529 21.6289 13.174 21.8287 13.4289 21.9768ZM12.77 19.5601C12.6398 19.5243 12.505 19.5074 12.37 19.51C12.0326 19.5259 11.6993 19.5901 11.38 19.7002C11.3393 19.7118 11.2918 19.7277 11.242 19.7443C11.1205 19.7849 10.9851 19.8301 10.9 19.8301C10.8403 19.6674 10.7934 19.5002 10.76 19.3301C10.6928 18.8647 10.4952 18.4278 10.19 18.0701C9.83138 17.7681 9.39454 17.5738 8.93005 17.51C8.76111 17.4719 8.59422 17.4253 8.43005 17.3701C8.43821 17.3171 8.46133 17.2491 8.48586 17.177C8.52145 17.0723 8.56 16.9589 8.56 16.8701C8.73807 16.4331 8.78668 15.9539 8.70001 15.49C8.545 15.0539 8.26719 14.672 7.90002 14.3901C7.76635 14.2704 7.64262 14.1398 7.53003 14C7.64546 13.8659 7.76902 13.7391 7.90002 13.6201C8.2675 13.3344 8.54517 12.949 8.70001 12.51C8.78612 12.0461 8.73752 11.5673 8.56 11.1301C8.50704 10.9702 8.46692 10.8064 8.44 10.6401C8.60076 10.5849 8.76438 10.538 8.93005 10.5C9.39454 10.4362 9.83138 10.2422 10.19 9.94019C10.4906 9.5807 10.6846 9.14422 10.75 8.68018C10.7866 8.50978 10.8368 8.34258 10.9 8.18018C11.0658 8.20942 11.2295 8.24938 11.39 8.30005C11.8262 8.48094 12.3051 8.53314 12.77 8.4502C13.2021 8.2876 13.5822 8.01112 13.87 7.65015C13.9898 7.5134 14.1202 7.38621 14.26 7.27002C14.3965 7.38646 14.5236 7.51365 14.64 7.65015C14.9316 8.01149 15.315 8.28785 15.75 8.4502C16.2141 8.53141 16.6917 8.48283 17.13 8.31006C17.2897 8.25399 17.4535 8.21064 17.62 8.18018C17.67 8.30018 17.76 8.53017 17.76 8.67017C17.8236 9.13772 18.0177 9.57791 18.32 9.94019C18.6795 10.2408 19.116 10.4346 19.58 10.5C19.749 10.5381 19.9159 10.585 20.08 10.6401C20.0531 10.8064 20.013 10.9702 19.96 11.1301C19.7797 11.5665 19.7276 12.0451 19.81 12.51C19.9723 12.945 20.2487 13.3285 20.61 13.6201C20.7441 13.7392 20.871 13.8659 20.9901 14C20.8739 14.1398 20.7468 14.2704 20.61 14.3901C20.2491 14.678 19.9726 15.0579 19.81 15.49C19.7268 15.9582 19.7788 16.4405 19.96 16.8801C20.0082 17.0413 20.0483 17.2049 20.08 17.3701C19.92 17.4252 19.7563 17.4685 19.59 17.5C19.1229 17.5715 18.6839 17.7686 18.32 18.0701C18.018 18.4287 17.8238 18.8656 17.76 19.3301C17.7266 19.5002 17.6798 19.6674 17.62 19.8301C17.4535 19.7996 17.2897 19.7563 17.13 19.7002C16.6917 19.5274 16.2141 19.4788 15.75 19.5601C15.311 19.7149 14.9258 19.9926 14.64 20.3601C14.5262 20.496 14.3989 20.6198 14.26 20.73C14.1178 20.6201 13.9872 20.4963 13.87 20.3601C13.5881 19.9929 13.2062 19.7151 12.77 19.5601ZM12.9719 16.6943C13.063 16.7321 13.1608 16.751 13.2594 16.75C13.3579 16.7505 13.4556 16.7314 13.5466 16.6936C13.6376 16.6558 13.7202 16.6001 13.7894 16.53L17.7894 12.53C17.9299 12.3894 18.0087 12.1988 18.0087 12C18.0087 11.8012 17.9299 11.6106 17.7894 11.47C17.6488 11.3295 17.4581 11.2507 17.2594 11.2507C17.0606 11.2507 16.8701 11.3295 16.7294 11.47L13.2594 14.9402L11.7894 13.47C11.6488 13.3295 11.4581 13.2507 11.2594 13.2507C11.0606 13.2507 10.8701 13.3295 10.7294 13.47C10.6587 13.5389 10.6024 13.6214 10.564 13.7124C10.5256 13.8034 10.5059 13.9012 10.5059 14C10.5059 14.0988 10.5256 14.1966 10.564 14.2876C10.6024 14.3786 10.6587 14.4611 10.7294 14.53L12.7294 16.53C12.7983 16.6006 12.8808 16.6565 12.9719 16.6943Z" fill="#166534"/>
</svg>
