<svg width="28" height="28" viewBox="0 0 28 28" fill="none" xmlns="http://www.w3.org/2000/svg">
<circle cx="14" cy="14" r="13.5" fill="#0066FF" stroke="white"/>
<g clip-path="url(#clip0_1496_3049)">
<path d="M14 22C13.3552 22 12.9139 21.5346 12.5648 21.1564C12.4485 21.0303 12.2497 20.8219 12.1673 20.7879C12.0994 20.7879 11.8036 20.8655 11.6291 20.9188C11.1442 21.0643 10.543 21.2437 10 20.9285C9.45697 20.6134 9.31152 19.9976 9.1903 19.5031C9.15152 19.3285 9.07879 19.0376 9.02061 18.9649C8.95758 18.9212 8.67152 18.8534 8.50182 18.8146C8.00727 18.6982 7.39152 18.5528 7.07152 18.0049C6.75152 17.4522 6.93576 16.8509 7.08121 16.3661C7.13455 16.1964 7.21697 15.9103 7.20727 15.8182C7.17818 15.7552 6.9697 15.5564 6.84364 15.44C6.4703 15.0861 6 14.6497 6 14.0049C6 13.36 6.46545 12.9188 6.84364 12.5697C6.9697 12.4534 7.17818 12.2546 7.21212 12.1722C7.22182 12.0946 7.13455 11.8085 7.08121 11.634C6.93576 11.1491 6.75636 10.5479 7.07152 10.0049C7.38667 9.46185 8.00242 9.3164 8.49697 9.19519C8.67152 9.1564 8.96242 9.08367 9.03515 9.02549C9.07879 8.96246 9.14667 8.6764 9.18545 8.5067C9.30182 8.01216 9.44727 7.3964 9.99515 7.0764C10.5479 6.7564 11.1491 6.94064 11.6339 7.08609C11.8036 7.13943 12.0897 7.2267 12.1818 7.21216C12.2448 7.18306 12.4436 6.97458 12.56 6.84852C12.9139 6.47519 13.3503 6.00488 13.9952 6.00488C14.64 6.00488 15.0812 6.47034 15.4303 6.84852C15.5467 6.97458 15.7406 7.18306 15.8279 7.217C15.9055 7.2267 16.1915 7.13943 16.3661 7.08609C16.8509 6.94064 17.4521 6.76125 17.9952 7.0764C18.5382 7.39155 18.6836 8.00731 18.8048 8.50185C18.8436 8.6764 18.9164 8.96731 18.9745 9.04003C19.0376 9.08367 19.3236 9.15155 19.4933 9.19034C19.9879 9.3067 20.6036 9.45216 20.9236 10C21.2436 10.5528 21.0594 11.154 20.9139 11.6388C20.8606 11.8085 20.7733 12.0946 20.7879 12.1867C20.817 12.2497 21.0255 12.4485 21.1515 12.5649C21.5248 12.9188 21.9952 13.3552 21.9952 14C21.9952 14.6449 21.5297 15.0861 21.1515 15.4352C21.0255 15.5515 20.817 15.7503 20.783 15.8328C20.7733 15.9103 20.8606 16.1964 20.9139 16.3709C21.0594 16.8558 21.2388 17.457 20.9236 18C20.6085 18.5431 19.9927 18.6885 19.4982 18.8097C19.3236 18.8485 19.0327 18.9212 18.96 18.9794C18.9164 19.0425 18.8485 19.3285 18.8097 19.4982C18.6933 19.9928 18.5479 20.6085 18 20.9285C17.4473 21.2485 16.8461 21.0643 16.3612 20.9188C16.1915 20.8655 15.9055 20.7831 15.8133 20.7928C15.7503 20.8219 15.5564 21.0303 15.4352 21.1564C15.0812 21.5297 14.6448 22 14 22ZM12.1673 19.3382C12.2933 19.3382 12.4242 19.3528 12.5552 19.3867C13.0109 19.5079 13.3358 19.857 13.6267 20.1625C13.7333 20.274 13.8982 20.4534 14 20.5261C14.1018 20.4534 14.2715 20.2788 14.3733 20.1625C14.6594 19.857 14.9891 19.5079 15.44 19.3867C15.9055 19.2606 16.3709 19.4012 16.7782 19.5273C16.9188 19.5709 17.1321 19.634 17.2582 19.6485C17.3067 19.5322 17.36 19.3091 17.3939 19.1637C17.4909 18.7515 17.6024 18.2812 17.937 17.9419C18.2764 17.6025 18.7467 17.4909 19.1636 17.394C19.3042 17.36 19.5224 17.3067 19.6388 17.2582C19.6242 17.137 19.5612 16.9237 19.5176 16.7879C19.3964 16.3758 19.2558 15.9103 19.3818 15.4449C19.503 14.9891 19.8521 14.6643 20.1576 14.3734C20.2691 14.2667 20.4485 14.1019 20.5212 14C20.4485 13.8982 20.2739 13.7285 20.1576 13.6267C19.8521 13.3406 19.503 13.0109 19.3818 12.5552C19.2558 12.0897 19.3964 11.6243 19.5224 11.217C19.5661 11.0764 19.6291 10.8631 19.6436 10.7419C19.5273 10.6934 19.3042 10.64 19.1588 10.6061C18.7467 10.5091 18.2764 10.3976 17.937 10.0631C17.5976 9.72367 17.4861 9.25337 17.3891 8.8364C17.3552 8.69579 17.3018 8.47761 17.2533 8.36125C17.1321 8.37579 16.9188 8.43882 16.783 8.48246C16.3709 8.60367 15.9103 8.74428 15.44 8.61822C14.9842 8.497 14.6594 8.14791 14.3685 7.84246C14.2618 7.73094 14.097 7.55155 13.9952 7.47882C13.8933 7.55155 13.7236 7.72609 13.6218 7.84246C13.3358 8.14791 13.0061 8.497 12.5503 8.61822C12.0848 8.74428 11.6194 8.60367 11.2121 8.47761C11.0715 8.43397 10.8582 8.37094 10.737 8.3564C10.6885 8.47276 10.6352 8.69579 10.6012 8.84125C10.5042 9.25337 10.3927 9.72367 10.0582 10.0631C9.71879 10.4025 9.24849 10.514 8.83152 10.6109C8.69091 10.6449 8.47273 10.6982 8.35636 10.7467C8.37091 10.8679 8.43394 11.0812 8.47758 11.217C8.59879 11.6291 8.73939 12.0946 8.61818 12.56C8.49697 13.0158 8.14788 13.3406 7.84242 13.6315C7.73091 13.7382 7.55152 13.9031 7.47879 14.0049C7.55152 14.1067 7.72606 14.2764 7.84242 14.3782C8.14788 14.6643 8.49697 14.994 8.61818 15.4497C8.74424 15.9152 8.60364 16.3806 8.47758 16.7879C8.43394 16.9285 8.37091 17.1419 8.35636 17.2631C8.47273 17.3115 8.69576 17.3649 8.84121 17.3988C9.25333 17.4958 9.72364 17.6073 10.063 17.9419C10.4024 18.2812 10.5139 18.7515 10.6109 19.1685C10.6448 19.3091 10.6982 19.5273 10.7467 19.6437C10.8679 19.6291 11.0812 19.5661 11.217 19.5225C11.5127 19.4352 11.8424 19.3334 12.177 19.3334L12.1673 19.3382Z" fill="white"/>
<path d="M11.9876 12.9285C11.4785 12.9285 11.0664 12.5164 11.0664 12.0073C11.0664 11.4982 11.4785 11.0861 11.9876 11.0861C12.4967 11.0861 12.9088 11.4982 12.9088 12.0073C12.9088 12.5164 12.4967 12.9285 11.9876 12.9285ZM11.9876 11.9588C11.9634 11.9588 11.9391 11.9782 11.9391 12.0073C11.9391 12.0558 12.0313 12.0558 12.0313 12.0073C12.0313 11.983 12.0119 11.9588 11.9828 11.9588H11.9876Z" fill="white"/>
<path d="M16.012 16.914C15.5029 16.914 15.0908 16.5018 15.0908 15.9927C15.0908 15.4837 15.5029 15.0715 16.012 15.0715C16.5211 15.0715 16.9332 15.4837 16.9332 15.9927C16.9332 16.5018 16.5211 16.914 16.012 16.914ZM16.012 15.9443C15.9878 15.9443 15.9635 15.9637 15.9635 15.9927C15.9635 16.0461 16.0557 16.0461 16.0557 15.9927C16.0557 15.9685 16.0363 15.9443 16.0072 15.9443H16.012Z" fill="white"/>
<path d="M11.9394 16.7879C11.7552 16.7879 11.5661 16.7152 11.4255 16.5746C11.1394 16.2885 11.1394 15.8279 11.4255 15.5467L15.5467 11.4255C15.8328 11.1394 16.2934 11.1394 16.5746 11.4255C16.8558 11.7115 16.8606 12.1722 16.5746 12.4534L12.4534 16.5746C12.3128 16.7152 12.1237 16.7879 11.9394 16.7879Z" fill="white"/>
</g>
<defs>
<clipPath id="clip0_1496_3049">
<rect width="16" height="16" fill="white" transform="translate(6 6)"/>
</clipPath>
</defs>
</svg>
