<svg width="22" height="22" viewBox="0 0 22 22" fill="none" xmlns="http://www.w3.org/2000/svg">
<path fill-rule="evenodd" clip-rule="evenodd" d="M15.9108 7.26803H13.7501V6.28589C13.748 5.92185 13.6025 5.57325 13.3451 5.31583C13.0876 5.05841 12.7391 4.91295 12.3751 4.91089H10.0179C9.65324 4.91089 9.30351 5.05576 9.04565 5.31362C8.78778 5.57149 8.64291 5.92122 8.64291 6.28589V7.26803H6.08934C5.93305 7.26803 5.78316 7.33007 5.67265 7.44058C5.56214 7.55109 5.50005 7.70103 5.50005 7.85732C5.499 7.935 5.51354 8.01208 5.54278 8.08405C5.57202 8.15603 5.61537 8.22143 5.6703 8.27636C5.72523 8.33129 5.79063 8.37459 5.8626 8.40383C5.93458 8.43307 6.01166 8.44766 6.08934 8.4466H6.67863L7.18149 15.8087C7.20532 16.1555 7.3596 16.4803 7.61324 16.7179C7.86689 16.9555 8.20108 17.0883 8.54863 17.0895H13.7658C14.1142 17.0884 14.4493 16.9559 14.7042 16.7185C14.9592 16.481 15.1151 16.1562 15.1408 15.8087L15.6358 8.4466H15.9108C16.0671 8.4466 16.2169 8.38447 16.3275 8.27396C16.438 8.16345 16.5001 8.01361 16.5001 7.85732C16.498 7.70166 16.4353 7.55295 16.3252 7.44288C16.2151 7.33281 16.0664 7.27007 15.9108 7.26803ZM9.82148 6.28589C9.82148 6.23379 9.84219 6.18385 9.87903 6.14701C9.91587 6.11017 9.96581 6.08946 10.0179 6.08946H12.3751C12.4271 6.08946 12.4771 6.11017 12.514 6.14701C12.5508 6.18385 12.5715 6.23379 12.5715 6.28589V7.26803H9.82148V6.28589ZM13.9622 15.7145C13.9583 15.7638 13.9358 15.8098 13.8994 15.8433C13.863 15.8768 13.8153 15.8953 13.7658 15.8952H8.55649C8.53173 15.8962 8.50698 15.8924 8.4837 15.8838C8.46041 15.8753 8.43907 15.8623 8.42083 15.8455C8.40258 15.8287 8.3878 15.8085 8.37738 15.786C8.36695 15.7635 8.36108 15.7392 8.36007 15.7145L7.86506 8.43087H14.4572L13.9622 15.7145ZM10.0179 13.9466C9.94023 13.9477 9.86315 13.9331 9.79117 13.9038C9.7192 13.8746 9.6538 13.8313 9.59887 13.7764C9.54394 13.7214 9.50059 13.656 9.47135 13.5841C9.44211 13.5121 9.42757 13.435 9.42863 13.3573V11.0002C9.42863 10.8439 9.49071 10.6939 9.60122 10.5834C9.71173 10.4729 9.86162 10.4109 10.0179 10.4109C10.1736 10.4129 10.3223 10.4757 10.4323 10.5857C10.5424 10.6958 10.6052 10.8445 10.6072 11.0002V13.3573C10.6072 13.5136 10.5451 13.6634 10.4346 13.774C10.3241 13.8845 10.1742 13.9466 10.0179 13.9466ZM12.1483 13.9038C12.2203 13.9331 12.2974 13.9477 12.3751 13.9466C12.5313 13.9466 12.6812 13.8845 12.7917 13.774C12.9023 13.6634 12.9643 13.5136 12.9643 13.3573V11.0002C12.9623 10.8445 12.8996 10.6958 12.7895 10.5857C12.6794 10.4757 12.5307 10.4129 12.3751 10.4109C12.2188 10.4109 12.0689 10.4729 11.9584 10.5834C11.8478 10.6939 11.7858 10.8439 11.7858 11.0002V13.3573C11.7847 13.435 11.7993 13.5121 11.8285 13.5841C11.8577 13.656 11.9011 13.7214 11.956 13.7764C12.0109 13.8313 12.0763 13.8746 12.1483 13.9038Z" fill="white"/>
</svg>
