<svg width="16" height="16" viewBox="0 0 16 16" fill="none" xmlns="http://www.w3.org/2000/svg">
<g id="Layer_1" clip-path="url(#clip0_1986_3769)">
<path id="Vector" d="M15.2354 2.02964H0.764575C0.34151 2.02964 0 1.68813 0 1.26506C0 0.841998 0.34151 0.500488 0.764575 0.500488H15.2354C15.6585 0.500488 16 0.841998 16 1.26506C16 1.68813 15.6585 2.02964 15.2354 2.02964Z" fill="#4C5866"/>
<path id="Vector_2" d="M15.2354 8.74766H0.764575C0.34151 8.74766 0 8.40615 0 7.98308C0 7.56002 0.34151 7.21851 0.764575 7.21851H15.2354C15.6585 7.21851 16 7.56002 16 7.98308C16 8.40615 15.6585 8.74766 15.2354 8.74766Z" fill="#4C5866"/>
<path id="Vector_3" d="M15.2354 15.4608H0.764575C0.34151 15.4608 0 15.1193 0 14.6962C0 14.2732 0.34151 13.9316 0.764575 13.9316H15.2354C15.6585 13.9316 16 14.2732 16 14.6962C16 15.1193 15.6585 15.4608 15.2354 15.4608Z" fill="#4C5866"/>
</g>
<defs>
<clipPath id="clip0_1986_3769">
<rect width="16" height="14.9602" fill="white" transform="translate(0 0.500488)"/>
</clipPath>
</defs>
</svg>
