<svg width="28" height="28" viewBox="0 0 28 28" fill="none" xmlns="http://www.w3.org/2000/svg">
<circle cx="14" cy="14" r="13.5" fill="#0066FF" stroke="white"/>
<path d="M19.5 7.75H8.5C7.77065 7.75 7.07121 8.03969 6.55548 8.55542C6.03976 9.07114 5.75 9.77065 5.75 10.5V17.5C5.75 18.2293 6.03976 18.9288 6.55548 19.4445C7.07121 19.9602 7.77065 20.25 8.5 20.25H19.5C20.2293 20.25 20.9289 19.9602 21.4446 19.4445C21.9603 18.9288 22.25 18.2293 22.25 17.5V10.5C22.2474 9.77147 21.9568 9.0735 21.4417 8.55835C20.9265 8.04319 20.2285 7.75263 19.5 7.75ZM8.5 9.25H19.5C19.694 9.25166 19.8851 9.29606 20.06 9.38L15.13 14.31C14.9919 14.4507 14.8268 14.5621 14.6447 14.6377C14.4626 14.7133 14.2672 14.7515 14.07 14.75H13.89C13.6928 14.7521 13.4971 14.7141 13.3149 14.6385C13.1328 14.5629 12.9678 14.4511 12.83 14.31L7.90002 9.38C8.08703 9.29012 8.29256 9.24558 8.5 9.25ZM7.25 10.81L10.44 14L7.25 17.19V10.81ZM19.5 18.75H8.5C8.30605 18.7483 8.11485 18.7039 7.94 18.62L11.5 15.06L11.81 15.38C12.3737 15.9391 13.136 16.252 13.93 16.25H14.07C14.8654 16.2493 15.6279 15.9328 16.19 15.37L16.5 15.06L20.06 18.62C19.8851 18.7039 19.694 18.7483 19.5 18.75ZM20.75 17.19L17.56 14L20.75 10.81V17.19Z" fill="white"/>
</svg>
