<svg width="12" height="12" viewBox="0 0 12 12" fill="none" xmlns="http://www.w3.org/2000/svg">
<path d="M9.33929 11.5H2.66071C1.47036 11.5 0.5 10.5296 0.5 9.33929V2.66071C0.5 1.47036 1.47036 0.5 2.66071 0.5H9.33929C10.5296 0.5 11.5 1.47036 11.5 2.66071V9.33929C11.5 10.5296 10.5296 11.5 9.33929 11.5ZM2.66071 1.67857C2.11857 1.67857 1.67857 2.11857 1.67857 2.66071V9.33929C1.67857 9.88143 2.11857 10.3214 2.66071 10.3214H9.33929C9.88143 10.3214 10.3214 9.88143 10.3214 9.33929V2.66071C10.3214 2.11857 9.88143 1.67857 9.33929 1.67857H2.66071Z" fill="#166534"/>
</svg>
