<svg width="16" height="15" viewBox="0 0 16 15" fill="none" xmlns="http://www.w3.org/2000/svg">
<g clip-path="url(#clip0_10418_3825)">
<path d="M5.47896 14.3727C4.07563 14.3727 2.67231 13.8406 1.60807 12.7711C-0.525608 10.6374 -0.525608 7.15781 1.60807 5.02413L6.39712 0.229868C6.70491 -0.0779247 7.20051 -0.0779247 7.50309 0.229868C7.80566 0.537661 7.81088 1.03326 7.50309 1.33583L2.70882 6.1301C1.18551 7.65341 1.18551 10.1366 2.70882 11.6651C4.23214 13.1885 6.71534 13.1885 8.24387 11.6651L13.7789 6.1301C14.6658 5.22759 14.6658 3.75122 13.7789 2.8435C12.8712 1.92012 11.3792 1.90969 10.461 2.81741L4.93119 8.34725C4.78512 8.49332 4.70165 8.69156 4.70165 8.90023C4.70165 9.1089 4.78512 9.30714 4.93119 9.45321C5.22855 9.75057 5.74502 9.75057 6.03716 9.45321L10.8314 4.65895C11.1392 4.35116 11.6348 4.35116 11.9374 4.65895C12.2452 4.96674 12.2452 5.46234 11.9374 5.76492L7.14312 10.5592C6.69969 11.0026 6.11019 11.2478 5.48417 11.2478C4.85816 11.2478 4.26865 11.0026 3.82522 10.5592C3.38179 10.1158 3.1366 9.52625 3.1366 8.90023C3.1366 8.27421 3.38179 7.68471 3.82522 7.24128L9.34984 1.70623C10.894 0.188133 13.372 0.209001 14.8901 1.74796C16.3769 3.26084 16.3769 5.72318 14.8901 7.23606L9.34984 12.7763C8.28039 13.8458 6.87707 14.3779 5.47896 14.3779V14.3727Z" fill="#1D4ED8"/>
</g>
<defs>
<clipPath id="clip0_10418_3825">
<rect width="16" height="14.3724" fill="white"/>
</clipPath>
</defs>
</svg>
