<svg width="28" height="28" viewBox="0 0 28 28" fill="none" xmlns="http://www.w3.org/2000/svg">
<path d="M20.7471 19.5605C20.8271 19.6373 20.8907 19.7295 20.9341 19.8315C20.9776 19.9335 21 20.0433 21 20.1542C21 20.265 20.9776 20.3748 20.9341 20.4768C20.8907 20.5788 20.8271 20.671 20.7471 20.7478C20.671 20.8282 20.5788 20.8917 20.4765 20.9342C20.3742 20.9766 20.2642 20.9971 20.1535 20.9943C20.0429 20.9961 19.9332 20.9751 19.8311 20.9327C19.7289 20.8903 19.6366 20.8274 19.5598 20.7478L13.993 15.1807L8.42625 20.7478C8.3506 20.8292 8.25862 20.8938 8.15633 20.9372C8.05403 20.9806 7.94372 21.002 7.8326 20.9999C7.72205 21.0017 7.6123 20.9807 7.51017 20.9383C7.40805 20.8959 7.31573 20.833 7.23896 20.7534C7.08563 20.5938 7 20.3811 7 20.1598C7 19.9384 7.08563 19.7257 7.23896 19.5661L12.8394 13.999L7.23896 8.42632C7.08563 8.26672 7 8.05397 7 7.83265C7 7.61132 7.08563 7.39858 7.23896 7.23897C7.39856 7.08564 7.61129 7 7.8326 7C8.05392 7 8.26665 7.08564 8.42625 7.23897L13.993 12.8061L19.5598 7.23897C19.7194 7.08564 19.9322 7 20.1535 7C20.3748 7 20.5875 7.08564 20.7471 7.23897C20.8271 7.3158 20.8907 7.40799 20.9341 7.51C20.9776 7.61202 21 7.72176 21 7.83265C21 7.94353 20.9776 8.05327 20.9341 8.15529C20.8907 8.25731 20.8271 8.34949 20.7471 8.42632L15.1803 13.9934L20.7471 19.5605Z" fill="#4C5866"/>
</svg>
