<svg width="22" height="22" viewBox="0 0 22 22" fill="none" xmlns="http://www.w3.org/2000/svg">
<g id="add">
<path id="Vector" d="M17.2858 10.9997C17.2838 12.614 16.6416 14.1617 15.5 15.3032C14.3585 16.4447 12.8109 17.0869 11.1966 17.089C10.3968 17.0898 9.60473 16.9327 8.86583 16.6266C8.12694 16.3206 7.45577 15.8716 6.89085 15.3054C6.83526 15.2512 6.79106 15.1865 6.76089 15.115C6.73072 15.0435 6.71519 14.9666 6.71519 14.889C6.71519 14.8114 6.73072 14.7345 6.76089 14.663C6.79106 14.5915 6.83526 14.5267 6.89085 14.4726C6.94502 14.417 7.00977 14.3728 7.08129 14.3426C7.15281 14.3124 7.22963 14.2969 7.30726 14.2969C7.38488 14.2969 7.46175 14.3124 7.53327 14.3426C7.60479 14.3728 7.66954 14.417 7.72371 14.4726C8.17876 14.9299 8.72003 15.2925 9.31614 15.5393C9.91226 15.7861 10.5514 15.9123 11.1966 15.9104C12.4977 15.9063 13.7444 15.3876 14.6644 14.4675C15.5844 13.5475 16.1031 12.3008 16.1073 10.9997C16.1052 9.69794 15.5871 8.45009 14.6667 7.5296C13.7462 6.60911 12.4983 6.09107 11.1966 6.08899C10.2966 6.08539 9.41495 6.34338 8.6589 6.83161C7.90285 7.31983 7.30498 8.01723 6.93799 8.83899H8.05369C8.20998 8.83899 8.35987 8.90108 8.47039 9.01159C8.5809 9.1221 8.64298 9.27199 8.64298 9.42828C8.64095 9.58393 8.57821 9.73264 8.46813 9.84271C8.35806 9.95279 8.20935 10.0155 8.05369 10.0176H5.30369C5.14741 10.0176 4.99752 9.95548 4.887 9.84497C4.77649 9.73445 4.71441 9.58457 4.71441 9.42828V6.67828C4.71335 6.6006 4.7279 6.5235 4.75714 6.45152C4.78638 6.37955 4.82972 6.31417 4.88465 6.25923C4.93959 6.2043 5.00499 6.16094 5.07696 6.1317C5.14893 6.10246 5.22602 6.08794 5.30369 6.08899C5.45998 6.08899 5.60987 6.15108 5.72039 6.26159C5.8309 6.3721 5.89298 6.52199 5.89298 6.67828V8.29685C6.35568 7.28061 7.10273 6.42005 8.04386 5.81912C8.985 5.21819 10.08 4.90259 11.1966 4.91042C12.8109 4.9125 14.3585 5.55472 15.5 6.69623C16.6416 7.83774 17.2838 9.38537 17.2858 10.9997V10.9997Z" fill="#4C5866"/>
</g>
</svg>
