<svg width="28" height="28" viewBox="0 0 28 28" fill="none" xmlns="http://www.w3.org/2000/svg">
<g clip-path="url(#clip0_3315_11790)">
<path d="M21.6127 17.3055L18.3077 13.9971L20.3979 11.9049C21.5862 10.7207 21.5862 8.7824 20.3979 7.59288C19.8249 7.01937 19.061 6.70075 18.244 6.70075C17.4271 6.70075 16.6684 7.01937 16.0902 7.59288L14 9.68515L12.7056 8.38943L10.695 6.37682C10.1963 5.87765 9.32096 5.87765 8.82228 6.37682L6.38727 8.81426C6.13793 9.06384 6 9.39839 6 9.75418C6 10.11 6.13793 10.4392 6.38727 10.6888L9.69231 13.9971L7.60212 16.0894C7.50133 16.1956 7.42706 16.3231 7.39523 16.4611L7.38462 16.5089V16.5355L6.33422 20.7094C6.26525 20.9802 6.34483 21.267 6.54111 21.4634C6.69496 21.6174 6.89655 21.6971 7.10345 21.6971C7.16711 21.6971 7.23607 21.6918 7.29973 21.6759L11.5438 20.6138C11.5438 20.6138 11.5597 20.6032 11.5703 20.6032C11.5968 20.5926 11.6286 20.5819 11.6552 20.5713C11.7029 20.5501 11.7507 20.5288 11.7931 20.497C11.8355 20.4704 11.8727 20.4386 11.9098 20.4014L14 18.3091L17.305 21.6228C17.565 21.8777 17.9045 22.0051 18.244 22.0051C18.5836 22.0051 18.9231 21.8777 19.1777 21.6174L21.6127 19.18C21.8674 18.9304 22 18.5959 22 18.2454C22 17.8949 21.8621 17.555 21.6127 17.3055ZM17.2149 8.71867C17.7666 8.17171 18.7215 8.1664 19.2732 8.71867C19.8408 9.28688 19.8408 10.2109 19.2732 10.7791L18.7745 11.2782L16.7162 9.21784L17.2149 8.71867ZM7.70292 9.74887L9.76127 7.68847L11.0186 8.94702L9.98939 9.97722C9.6817 10.2905 9.6817 10.795 9.98939 11.103C10.1485 11.2623 10.3501 11.3367 10.5517 11.3367C10.7533 11.3367 10.9602 11.2623 11.1141 11.103L12.1432 10.0728L12.8753 10.8056L10.817 12.866L7.70292 9.74887ZM8.19629 19.8013L8.76923 17.5232C9.60212 17.7409 10.2599 18.3994 10.4721 19.2331L8.19629 19.8013ZM13.4536 16.5992L13.4218 16.6311L11.809 18.2507C11.4111 17.3267 10.6737 16.5886 9.75597 16.185L11.3793 14.5547L15.5915 10.3383L17.6499 12.3987L16.6472 13.4077L16.6313 13.4236L16.6154 13.4395L16.5995 13.4555L13.4536 16.5992ZM18.244 20.3005L15.1247 17.178L17.183 15.1176L17.9151 15.8504L16.8859 16.8806C16.5782 17.1939 16.5782 17.6984 16.8859 18.0064C17.0451 18.1657 17.2467 18.2401 17.4483 18.2401C17.6499 18.2401 17.8568 18.1657 18.0106 18.0064L19.0398 16.9762L20.3024 18.2401L18.244 20.3005Z" fill="#0066FF"/>
</g>
<defs>
<clipPath id="clip0_3315_11790">
<rect width="16" height="16" fill="white" transform="translate(6 6)"/>
</clipPath>
</defs>
</svg>
