<svg width="18" height="12" viewBox="0 0 18 12" fill="none" xmlns="http://www.w3.org/2000/svg">
<path d="M17.9184 6.80124L14.6258 0.438695C14.5277 0.248452 14.3532 0.105771 14.1461 0.0370719C13.939 -0.0263422 13.7154 -0.0104887 13.5192 0.0846325L11.3278 1.17324C11.1316 1.27365 10.9844 1.44804 10.919 1.65413C10.8699 1.81795 10.8754 1.98706 10.9353 2.14559C10.2975 2.19844 9.69243 2.40982 9.17457 2.76916L9.07099 2.70575C8.48771 2.33055 7.81175 2.13502 7.11945 2.13502H7.04313C7.10854 1.9712 7.114 1.79153 7.05948 1.62771C6.99407 1.42161 6.84688 1.24722 6.64519 1.1521L4.45924 0.0846325C4.26845 -0.0104887 4.0395 -0.0263422 3.83235 0.0423564C3.63065 0.105771 3.45621 0.248452 3.35809 0.438695L0.0873449 6.80124C-0.1089 7.18701 0.043735 7.65205 0.436224 7.85286L2.50224 8.92562C2.62217 8.98903 2.753 9.02074 2.88928 9.02074C2.97105 9.02074 3.05282 9.01017 3.12914 8.98375C3.33628 8.92562 3.51072 8.78294 3.6143 8.59269L3.64155 8.53985L7.23392 11.1028C7.74634 11.4675 8.35143 11.6471 8.95106 11.6471C9.58341 11.6471 10.2103 11.4463 10.7282 11.05L13.432 8.99432L13.4865 8.95732L14.2824 8.43944L14.3532 8.57684C14.4514 8.76708 14.6258 8.91505 14.833 8.98375C14.9147 9.01017 15.0019 9.02074 15.0892 9.02074C15.22 9.02074 15.3508 8.98903 15.4707 8.9309L17.5695 7.85815C17.962 7.65733 18.1146 7.18701 17.9184 6.80124ZM9.87232 4.26468C10.2321 3.9159 10.7118 3.72037 11.2242 3.72037H11.8021L13.541 7.01262L13.0231 7.35083L10.5973 5.45898C10.4502 5.34272 10.2648 5.28459 10.0849 5.28459C9.95954 5.28459 9.82871 5.31101 9.71424 5.36914L8.18244 6.12483C8.10067 6.16182 8.0189 6.16182 7.94258 6.1354L9.87232 4.26468ZM2.63853 6.98092V6.99149L2.54586 7.15002L1.90806 6.82238L4.45924 1.86023L5.15155 2.19844L4.99891 2.47323L4.9553 2.54721C4.9553 2.54721 4.9444 2.56307 4.93895 2.56835L2.63853 6.98092ZM9.71969 9.80285C9.28359 10.1411 8.6567 10.1463 8.20424 9.82398L4.40473 7.11303L6.17093 3.72037H7.11945C7.40291 3.72037 7.68092 3.78379 7.93713 3.90005L6.22544 5.55938C5.91472 5.85532 5.90382 6.33621 6.19274 6.64799L6.64519 7.13417C7.22302 7.74717 8.15518 7.91628 8.92381 7.54107L9.98135 7.01791L11.6658 8.32847L9.71969 9.80285ZM15.4544 7.14474L15.3454 6.92807C15.329 6.89108 15.3072 6.85937 15.2854 6.82767C15.28 6.82238 15.2745 6.8171 15.2745 6.81181L13.0722 2.64762C13.0613 2.61063 13.0449 2.57364 13.0231 2.54193L13.0068 2.51022L12.8323 2.209L13.5356 1.86023L16.0976 6.8171L15.4544 7.14474Z" fill="#1D4ED8"/>
</svg>
