<svg width="28" height="28" viewBox="0 0 28 28" fill="none" xmlns="http://www.w3.org/2000/svg">
<path d="M20.0308 18.9698C20.1712 19.1104 20.2501 19.301 20.2501 19.4998C20.2501 19.6985 20.1712 19.8892 20.0308 20.0298C19.9615 20.0999 19.879 20.1555 19.788 20.1932C19.697 20.231 19.5993 20.2502 19.5007 20.2498C19.4022 20.2502 19.3046 20.231 19.2136 20.1932C19.1226 20.1555 19.04 20.0999 18.9708 20.0298L13.9708 15.0298L8.97076 20.0298C8.90152 20.0999 8.81898 20.1555 8.72797 20.1932C8.63695 20.231 8.53928 20.2502 8.44073 20.2498C8.34219 20.2502 8.24458 20.231 8.15356 20.1932C8.06255 20.1555 7.98001 20.0999 7.91077 20.0298C7.77032 19.8892 7.69141 19.6985 7.69141 19.4998C7.69141 19.301 7.77032 19.1104 7.91077 18.9698L12.9108 13.9698L7.91077 8.96979C7.77032 8.82916 7.69141 8.63851 7.69141 8.43976C7.69141 8.24101 7.77032 8.05042 7.91077 7.90979C8.05139 7.76934 8.24198 7.69043 8.44073 7.69043C8.63949 7.69043 8.83014 7.76934 8.97076 7.90979L13.9708 12.9098L18.9708 7.90979C19.1114 7.76934 19.302 7.69043 19.5007 7.69043C19.6995 7.69043 19.8901 7.76934 20.0308 7.90979C20.1712 8.05042 20.2501 8.24101 20.2501 8.43976C20.2501 8.63851 20.1712 8.82916 20.0308 8.96979L15.0308 13.9698L20.0308 18.9698Z" fill="#374151"/>
</svg>
