<?xml version="1.0" encoding="UTF-8"?><svg id="Layer_2" xmlns="http://www.w3.org/2000/svg" width="418" height="418" xmlns:xlink="http://www.w3.org/1999/xlink" viewBox="0 0 418 418"><defs><filter id="drop-shadow-1" x="52.1" y="39.8" width="101" height="108" filterUnits="userSpaceOnUse"><feOffset dx="5" dy="5"/><feGaussianBlur result="blur" stdDeviation="5"/><feFlood flood-color="#06f" flood-opacity="0"/><feComposite in2="blur" operator="in"/><feComposite in="SourceGraphic"/></filter><filter id="drop-shadow-2" x="269.1" y="156.8" width="118" height="120" filterUnits="userSpaceOnUse"><feOffset dx="5" dy="5"/><feGaussianBlur result="blur-2" stdDeviation="5"/><feFlood flood-color="#06f" flood-opacity="0"/><feComposite in2="blur-2" operator="in"/><feComposite in="SourceGraphic"/></filter><mask id="mask" x="280.5" y="183.8" width="86.1" height="72.6" maskUnits="userSpaceOnUse"><g id="path-4-inside-1_3688_10247"><path d="M280.8,191.7l79.2-7.9,6.3,63.1c0,.8-.5,1.5-1.3,1.6l-76.3,7.6c-.8,0-1.5-.5-1.6-1.3l-6.3-63.1Z" style="fill:#fff;"/></g></mask><filter id="drop-shadow-3" x="269.1" y="289.8" width="101" height="84" filterUnits="userSpaceOnUse"><feOffset dx="5" dy="5"/><feGaussianBlur result="blur-3" stdDeviation="5"/><feFlood flood-color="#06f" flood-opacity="0"/><feComposite in2="blur-3" operator="in"/><feComposite in="SourceGraphic"/></filter><filter id="drop-shadow-4" x="43.1" y="166.8" width="77" height="78" filterUnits="userSpaceOnUse"><feOffset dx="5" dy="5"/><feGaussianBlur result="blur-4" stdDeviation="5"/><feFlood flood-color="#06f" flood-opacity="0"/><feComposite in2="blur-4" operator="in"/><feComposite in="SourceGraphic"/></filter><filter id="drop-shadow-5" x="41.1" y="278.8" width="90" height="90" filterUnits="userSpaceOnUse"><feOffset dx="5" dy="5"/><feGaussianBlur result="blur-5" stdDeviation="5"/><feFlood flood-color="#06f" flood-opacity="0"/><feComposite in2="blur-5" operator="in"/><feComposite in="SourceGraphic"/></filter><filter id="drop-shadow-6" x="270.1" y="53.8" width="101" height="102" filterUnits="userSpaceOnUse"><feOffset dx="5" dy="5"/><feGaussianBlur result="blur-6" stdDeviation="5"/><feFlood flood-color="#06f" flood-opacity="0"/><feComposite in2="blur-6" operator="in"/><feComposite in="SourceGraphic"/></filter></defs><g id="Layer_1-2"><rect width="418" height="418" style="fill:#1d2327;"/><rect x="85.5" y="95.3" width="227.3" height="227.3" style="fill:#fff;"/><path d="M258.9,140.9l-17.6-17.6c-3.1-3.1-8.5-3.1-11.5,0l-32.9,32.8-24.6,24.4-32.8,32.9c-3.1,3.1-3.1,8.4,0,11.5l17.6,17.6c1.6,1.6,3.5,2.4,5.7,2.4s4.2-.8,5.7-2.4l32.8-32.8,24.7-24.6,32.8-32.8c3.1-3.1,3.1-8.4,0-11.5h0ZM253.6,147.2l-90.2,90.2c-.3.3-.7.3-.9,0l-17.6-17.6c-.3-.3-.3-.7,0-.9l6.4-6.4,6.4,6.4c.8.8,1.7,1,2.6,1s2-.4,2.6-1c1.4-1.4,1.4-3.8,0-5.4l-6.4-6.4,9-9,6.4,6.4c.8.8,1.7,1,2.6,1s2-.4,2.6-1c1.4-1.4,1.4-3.8,0-5.4l-6.4-6.4,9-9,10.3,9.8c.8.8,1.7,1,2.6,1s2-.4,2.6-1c1.4-1.4,1.4-3.8,0-5.4l-9.9-9.9,9-9,6.4,6.4c.8.8,1.7,1,2.6,1s2-.4,2.6-1c1.4-1.4,1.4-3.8,0-5.4l-6.4-6.4,9-9,6.4,6.4c.8.8,1.7,1,2.6,1s2-.4,2.6-1c1.4-1.4,1.4-3.8,0-5.4l-6.4-6.4,9-9,10.3,9.9c.8.8,1.7,1,2.6,1s2-.4,2.6-1c1.4-1.4,1.4-3.8,0-5.4l-9.9-9.9,6.4-6.4h.9l17.6,17.6c.4.3.4.6.1.9h0Z" style="fill:#06f;"/><path d="M157.3,160.4l19.8-19.8,67,67-19.8,19.8-67-67Z"/><path d="M251.5,215.2l-2.6-2.6-19.9,19.7,2.6,2.6c.8.8,1.7,1.2,2.7,1.4l15.2,2.5c3.4.5,6.3-2.4,5.7-5.7l-2.5-15.2c-.1-1-.5-2.1-1.3-2.7h0Z"/><path d="M152.5,155.6l19.7-19.7-8-8c-2-2-5.1-2-7.1,0l-12.7,12.7c-2,2-2,5.1,0,7.1l8,8Z"/><g style="filter:url(#drop-shadow-1);"><path d="M115.5,127.8l-51.8-3.4c-.7,0-1.3-.7-1.2-1.4l4.1-62.1c0-.7.7-1.3,1.4-1.2l51.8,3.4c.7,0,1.3.7,1.2,1.4l-4.1,62.1c0,.7-.7,1.3-1.4,1.2Z" style="fill:#fff;"/><path d="M108.4,56.4l-12.5-.8c.9-.5,1.6-1.4,1.6-2.5.1-1.7-1.2-3.2-2.9-3.3s-3.2,1.2-3.3,2.9.4,2.1,1.3,2.7l-12.5-.8c-.8,0-1.4.5-1.5,1.3l-.4,6.7c0,.8.5,1.4,1.3,1.5l28.2,1.9c.8,0,1.4-.5,1.5-1.3l.4-6.7c0-.8-.5-1.4-1.3-1.5ZM92.6,52.8c0-1,1-1.8,2-1.7s1.8,1,1.7,2-1,1.8-2,1.7-1.8-1-1.7-2Z" style="fill:#4c5866;"/><rect x="74" y="95" width="17.6" height="3.3" rx="1.6" ry="1.6" transform="translate(6.6 -5.3) rotate(3.8)" style="fill:#a3b0c2;"/><rect x="74.4" y="88.5" width="35.2" height="3.3" rx="1.6" ry="1.6" transform="translate(6.2 -5.9) rotate(3.8)" style="fill:#a3b0c2;"/><rect x="74.9" y="80.9" width="17.6" height="3.3" rx="1.6" ry="1.6" transform="translate(5.6 -5.3) rotate(3.8)" style="fill:#a3b0c2;"/><rect x="75.3" y="74.5" width="35.2" height="3.3" rx="1.6" ry="1.6" transform="translate(5.2 -6) rotate(3.8)" style="fill:#a3b0c2;"/><path d="M132,99.1l-5-5.6c-.5-.6-1.2-.9-2-1s-1.5.2-2.1.7l-16.6,14.2c-.1.1-.2.3-.3.5l-3.8,9.1c-.2.4-.2.8-.1,1.2s.2.8.5,1.1c.3.3.6.6,1.1.7.4.1.8.1,1.3,0l9.7-2.4c.1,0,.3-.1.4-.2h.1s16.7-14.3,16.7-14.3c.6-.5,1-1.2,1-2s-.2-1.5-.7-2.1h0ZM114.4,114.6l-5.5-6,12-10.3,5.4,6-12,10.3ZM104.8,117.4l2.7-6.6,4.3,4.8-7,1.7ZM130,101.2l-1.6,1.4-5.4-6,1.6-1.4c0,0,.2,0,.2,0s.2,0,.2.1l5,5.6c0,0,0,.1,0,.2s0,.1-.1.2h0Z" style="fill:#f15a24;"/></g><g style="filter:url(#drop-shadow-2);"><path d="M279.4,176.2c0-.7.5-1.4,1.2-1.5l76.3-7.6c.7,0,1.4.5,1.5,1.2l1.5,15.4-78.9,7.8-1.5-15.4Z" style="fill:#fff;"/><path d="M279.4,176.2c0-.7.5-1.4,1.2-1.5l76.3-7.6c.7,0,1.4.5,1.5,1.2l1.5,15.4-78.9,7.8-1.5-15.4Z" style="fill:none; stroke:#e5e7eb; stroke-width:.3px;"/><path d="M288.6,183.4c0,.3,0,.6-.3.8-.2.2-.6.4-1,.4s-.8,0-1.1-.1v-.7c.2,0,.4.1.6.2.2,0,.3,0,.5,0s.3,0,.4-.1c0,0,.1-.2.1-.3s0-.1,0-.2c0,0-.1-.1-.2-.1,0,0-.3-.1-.5-.2-.2,0-.4-.2-.5-.3-.1,0-.2-.2-.3-.3,0-.1-.1-.3-.1-.5,0-.3,0-.6.3-.8.2-.2.5-.3.9-.4s.4,0,.6,0c.2,0,.4,0,.6.1l-.2.6c-.2,0-.4-.1-.5-.1-.1,0-.3,0-.4,0s-.3,0-.3.1c0,0-.1.2,0,.3s0,.1,0,.2c0,0,0,0,.2.1,0,0,.3.1.5.2.4.1.6.3.8.4.1.2.2.4.3.6ZM290.5,183.7c.1,0,.3,0,.5-.1v.6c-.1.1-.4.2-.7.2s-.6,0-.7-.2c-.2-.1-.3-.4-.3-.7v-1.4c-.1,0-.5,0-.5,0v-.3s.4-.3.4-.3l.2-.6h.5s0,.6,0,.6h.8c0,0,0,.5,0,.5h-.8c0,0,.1,1.5.1,1.5,0,.1,0,.2.1.2,0,0,.2,0,.3,0ZM293.5,184l-.2-.4h0c-.1.2-.2.3-.4.4-.1,0-.3.1-.5.1s-.5,0-.7-.2c-.2-.1-.3-.4-.3-.7s0-.5.3-.7c.2-.2.5-.3.9-.3h.5c0,0,0-.2,0-.2,0-.3-.2-.4-.5-.4s-.5.1-.8.3l-.3-.5c.3-.2.7-.3,1.1-.4s.7,0,.9.2c.2.1.4.4.4.7l.2,1.9h-.5ZM293.1,182.6h-.3c-.2,0-.4.1-.5.2-.1,0-.1.2-.1.4,0,.2.2.3.4.3s.3,0,.4-.2c0-.1.1-.3.1-.4v-.2ZM296,183.1c.1,0,.3,0,.5-.1v.6c-.1.1-.4.2-.7.2s-.6,0-.7-.2c-.2-.1-.3-.4-.3-.7v-1.4c-.1,0-.5,0-.5,0v-.3s.4-.3.4-.3l.2-.6h.5s0,.6,0,.6h.8c0,0,0,.5,0,.5h-.8c0,0,.1,1.5.1,1.5,0,.1,0,.2.1.2,0,0,.2,0,.3,0ZM299.2,183.4v-.4c-.1,0-.2,0-.2,0,0,.1-.2.3-.3.3-.1,0-.3.1-.5.2-.3,0-.6,0-.8-.2-.2-.2-.3-.4-.3-.8l-.2-1.9h.8c0,0,.2,1.6.2,1.6,0,.2,0,.4.2.5,0,0,.2.1.4.1s.4-.1.5-.3c0-.2.1-.4,0-.7v-1.4c-.1,0,.7,0,.7,0l.3,2.9h-.6ZM302.5,182.2c0,.3,0,.5-.2.7-.2.2-.5.3-.9.3s-.4,0-.5,0c-.2,0-.3,0-.4,0v-.6c0,0,.3,0,.4.1.2,0,.4,0,.5,0,.3,0,.4-.1.4-.3s0-.1,0-.1c0,0-.1,0-.2-.1,0,0-.2,0-.4-.1-.2,0-.4-.1-.5-.2-.1,0-.2-.2-.3-.2,0,0,0-.2-.1-.4,0-.3,0-.5.2-.6.2-.2.5-.3.8-.3s.7,0,1,.1l-.2.6c-.2,0-.3,0-.4-.1-.1,0-.3,0-.4,0-.2,0-.3,0-.3.2s0,.1.1.2c0,0,.3.1.5.2.2,0,.4.1.5.2.1,0,.2.2.3.3,0,0,0,.2.1.4ZM306.1,182.7h-.8c0,0-.3-3-.3-3h-1c0,.1,0-.6,0-.6l2.8-.3v.7c0,0-1,.1-1,.1l.3,3.1ZM309,179.5c.1,0,.2,0,.3,0v.7c0,0-.1,0-.2,0-.3,0-.4.1-.6.3-.1.1-.2.3-.2.6v1.5c.1,0-.6,0-.6,0l-.3-2.9h.6c0,0,.2.4.2.4h0c0-.2.2-.3.3-.4.1-.1.3-.2.5-.2ZM311.9,182.1l-.2-.4h0c-.1.2-.2.3-.4.4-.1,0-.3.1-.5.1s-.5,0-.7-.2c-.2-.1-.3-.4-.3-.7s0-.5.3-.7c.2-.2.5-.3.9-.3h.5c0,0,0-.2,0-.2,0-.3-.2-.4-.5-.4s-.5.1-.8.3l-.3-.5c.3-.2.7-.3,1.1-.4s.7,0,.9.2c.2.1.4.4.4.7l.2,1.9h-.5ZM311.5,180.8h-.3c-.2,0-.4.1-.5.2-.1,0-.1.2-.1.4,0,.2.2.3.4.3s.3,0,.4-.2c0-.1.1-.3.1-.4v-.2ZM314.4,181.9c-.9,0-1.4-.4-1.5-1.3s0-.9.3-1.2c.2-.3.6-.4,1-.5s.6,0,.9.1l-.2.6c-.1,0-.2,0-.4,0-.1,0-.2,0-.3,0-.4,0-.6.4-.5.9s.3.8.7.8.3,0,.4-.1c.1,0,.2-.1.4-.2v.7c0,0-.2.2-.3.2-.1,0-.3,0-.5,0ZM316.6,180.1l.3-.5.7-1h.9c0,0-1,1.3-1,1.3l1.4,1.5h-.9c0,0-.9-1-.9-1l-.3.3v.9c0,0-.7,0-.7,0l-.4-4h.8c0,0,.2,1.7.2,1.7v.7s0,0,0,0ZM320.2,178.9c-.2,0-.3,0-.4.2,0,.1-.1.3-.1.5h1.1c0-.3,0-.4-.2-.5-.1,0-.2-.1-.4-.1ZM320.5,181.3c-.5,0-.8,0-1.1-.3-.3-.2-.5-.6-.5-1s0-.9.2-1.2c.2-.3.5-.5,1-.5s.7,0,1,.3.4.5.4.9v.4s-1.8.2-1.8.2c0,.2.1.4.3.5.1.1.3.2.5.1s.3,0,.5-.1c.2,0,.3-.1.5-.2v.6c0,0-.2.1-.4.2-.2,0-.3,0-.6.1ZM323.7,178c.1,0,.2,0,.3,0v.7c0,0-.1,0-.2,0-.3,0-.4.1-.6.3-.1.1-.2.3-.2.6v1.5c.1,0-.6,0-.6,0l-.3-2.9h.6c0,0,.2.4.2.4h0c0-.2.2-.3.3-.4.1-.1.3-.2.5-.2Z" style="fill:#1f2937;"/><path d="M280.8,191.7l79.2-7.9,6.3,63.1c0,.8-.5,1.5-1.3,1.6l-76.3,7.6c-.8,0-1.5-.5-1.6-1.3l-6.3-63.1Z" style="fill:#fff;"/><g style="mask:url(#mask);"><path d="M280.8,191.7l79.2-7.9-79.2,7.9ZM366.5,246.9c0,1-.6,1.8-1.6,1.9l-76.3,7.6c-1,0-1.8-.6-1.9-1.6h.6c0,.6.6,1.1,1.3,1l76.3-7.6c.6,0,1.1-.6,1.1-1.3h.6ZM288.7,256.4c-1,0-1.8-.6-1.9-1.6l-6.3-63.1h.6c0,0,6.3,63,6.3,63,0,.6.6,1.1,1.3,1.1v.6ZM360.3,183.8l6.3,63.1c0,1-.6,1.8-1.6,1.9v-.6c.6,0,1.1-.6,1-1.3l-6.3-63.1h.6Z" style="fill:#e5e7eb;"/></g><path d="M290.2,196.7h0c1.6-.2,3.1,1,3.2,2.6h0c.2,1.6-1,3.1-2.6,3.2h0c-1.6.2-3.1-1-3.2-2.6h0c-.2-1.6,1-3.1,2.6-3.2Z" style="fill:#22c55e;"/><path d="M290.2,200.6s0,0-.1,0l-.8-.6s0,0,0,0c0,0,0,0,0,0s0,0,0,0c0,0,0,0,0,0,0,0,0,0,.1,0s0,0,.1,0l.7.5,1.2-1.5s0,0,.1,0,0,0,.1,0c0,0,0,0,0,.1s0,0,0,.1l-1.3,1.6s0,0-.1,0Z" style="fill:#fff;"/><path d="M299.4,198.8c0,.5,0,.9-.2,1.2-.2.3-.5.4-1,.5s-.8,0-1.1-.3c-.3-.2-.4-.6-.5-1.1s0-.9.2-1.2c.2-.3.5-.4,1-.5s.8,0,1.1.3c.3.2.4.6.5,1.1ZM297.2,199c0,.3.1.6.3.7.1.2.3.2.6.2.5,0,.7-.4.6-1.1s-.3-1-.8-.9-.4.1-.5.3c-.1.2-.1.4-.1.8ZM301.1,197.8c0,0,.2,0,.2,0v.6s-.1,0-.2,0c-.2,0-.3,0-.4.2,0,.1-.1.3-.1.4v1.1c.1,0-.5,0-.5,0l-.2-2.2h.5s.1.3.1.3h0c0-.1.1-.2.3-.3.1,0,.2-.1.4-.2ZM302.6,200c-.3,0-.5,0-.7-.2-.2-.2-.3-.5-.3-.8s0-.7.1-.9c.1-.2.3-.3.6-.4s.5,0,.7.3h0c0-.2,0-.3,0-.4v-.7c0,0,.5,0,.5,0l.3,3.1h-.5s-.1-.2-.1-.2h0c-.1.2-.3.4-.6.4ZM302.8,199.5c.2,0,.3,0,.3-.2,0,0,0-.3,0-.5h0c0-.3,0-.5-.2-.6,0,0-.2-.1-.4-.1s-.2,0-.3.2c0,.1,0,.3,0,.5s0,.4.2.5c0,.1.2.1.3.1ZM305.3,197.8c-.1,0-.2,0-.3.2,0,0,0,.2,0,.4h.9c0-.2,0-.3-.2-.4,0,0-.2-.1-.3,0ZM305.6,199.7c-.4,0-.7,0-.9-.2-.2-.2-.4-.5-.4-.8s0-.7.2-.9c.2-.2.4-.4.7-.4s.6,0,.8.2c.2.2.3.4.3.7v.3s-1.4.1-1.4.1c0,.2,0,.3.2.4.1,0,.2.1.4.1s.3,0,.4,0c.1,0,.2,0,.4-.2v.5c0,0-.2.1-.3.2-.1,0-.3,0-.4,0ZM308,197.1c0,0,.2,0,.2,0v.6s-.1,0-.2,0c-.2,0-.3,0-.4.2,0,.1-.1.3-.1.4v1.1c.1,0-.5,0-.5,0l-.2-2.2h.5s.1.3.1.3h0c0-.1.1-.2.3-.3.1,0,.2-.1.4-.2ZM310.4,197.6h.2c.2,0,.3,0,.4-.2,0,0,.1-.2.1-.3s0-.2-.2-.3c0,0-.2,0-.4,0h-.3s0,.9,0,.9ZM311.8,197c0,.3,0,.6-.2.8-.2.2-.5.3-.8.3h-.3s.1,1.1.1,1.1h-.6c0,0-.3-2.9-.3-2.9h.9c.4-.1.6,0,.8,0,.2.1.3.4.3.7ZM313.1,198.9h-.6c0,0-.3-3.1-.3-3.1h.6c0,0,.3,3.1.3,3.1ZM315.1,198.7v-.3c-.1,0-.2,0-.2,0,0,.1-.2.2-.3.3-.1,0-.2,0-.4.1s-.4,0-.5-.1c-.1-.1-.2-.3-.2-.5s0-.4.2-.6c.2-.1.4-.2.7-.3h.4c0,0,0-.1,0-.1,0-.2-.2-.3-.4-.3s-.4,0-.6.2l-.2-.4c.2-.2.5-.3.8-.3s.5,0,.7.1.3.3.3.6v1.5c.1,0-.3,0-.3,0ZM314.9,197.7h-.2c-.2,0-.3,0-.4.2,0,0-.1.2-.1.3,0,.2.1.2.3.2s.3,0,.3-.2c0,0,.1-.2,0-.3v-.2ZM317.1,198.5c-.7,0-1.1-.3-1.2-1s0-.7.2-.9c.2-.2.4-.3.8-.4s.5,0,.7,0v.5c-.2,0-.3,0-.4,0,0,0-.2,0-.3,0-.3,0-.5.3-.4.7s.2.6.5.6.2,0,.3,0c0,0,.2-.1.3-.2v.5c0,0-.1.1-.2.2,0,0-.2,0-.4,0ZM319.1,196.4c-.1,0-.2,0-.3.2,0,0,0,.2,0,.4h.9c0-.2,0-.3-.2-.4,0,0-.2-.1-.3,0ZM319.3,198.3c-.4,0-.7,0-.9-.2-.2-.2-.4-.5-.4-.8s0-.7.2-.9c.2-.2.4-.4.7-.4s.6,0,.8.2c.2.2.3.4.3.7v.3s-1.4.1-1.4.1c0,.2,0,.3.2.4.1,0,.2.1.4.1s.3,0,.4,0c.1,0,.2,0,.4-.2v.5c0,0-.2.1-.3.2-.1,0-.3,0-.4,0ZM321.5,198.1c-.3,0-.5,0-.7-.2-.2-.2-.3-.5-.3-.8s0-.7.1-.9c.1-.2.3-.3.6-.4s.5,0,.7.3h0c0-.2,0-.3,0-.4v-.7c0,0,.5,0,.5,0l.3,3.1h-.5s-.1-.2-.1-.2h0c-.1.2-.3.4-.6.4ZM321.6,197.6c.2,0,.3,0,.3-.2,0,0,0-.3,0-.5h0c0-.3,0-.5-.2-.6,0,0-.2-.1-.4-.1s-.2,0-.3.2c0,.1,0,.3,0,.5s0,.4.2.5c0,.1.2.1.3.1Z" style="fill:#6b7280;"/><path d="M291.3,208.5h0c1.6-.2,3.1,1,3.2,2.6h0c.2,1.6-1,3.1-2.6,3.2h0c-1.6.2-3.1-1-3.2-2.6h0c-.2-1.6,1-3.1,2.6-3.2Z" style="fill:#22c55e;"/><path d="M291.4,212.3s0,0-.1,0l-.8-.6s0,0,0,0c0,0,0,0,0,0s0,0,0,0c0,0,0,0,0,0,0,0,0,0,.1,0s0,0,.1,0l.7.5,1.2-1.5s0,0,.1,0,0,0,.1,0c0,0,0,0,0,.1s0,0,0,.1l-1.3,1.6s0,0-.1,0Z" style="fill:#fff;"/><path d="M298.5,210.5h.2c.2,0,.3,0,.4-.2,0,0,.1-.2.1-.3s0-.2-.2-.3c-.1,0-.3,0-.5,0h-.2s0,.8,0,.8ZM298.5,211.1v1.1c.1,0-.5,0-.5,0l-.3-2.9h.9c.4-.1.7,0,.9,0,.2.1.3.3.4.6s0,.3,0,.5c0,.1-.2.3-.4.4.5.6.8,1,1,1.2h-.7c0,0-.8-1-.8-1h-.3ZM301.4,210c-.1,0-.2,0-.3.2,0,0,0,.2,0,.4h.9c0-.2,0-.3-.2-.4,0,0-.2-.1-.3,0ZM301.7,211.9c-.4,0-.7,0-.9-.2-.2-.2-.4-.5-.4-.8s0-.7.2-.9c.2-.2.4-.4.7-.4s.6,0,.8.2c.2.2.3.4.3.7v.3s-1.4.1-1.4.1c0,.2,0,.3.2.4.1,0,.2.1.4.1s.3,0,.4,0c.1,0,.2,0,.4-.2v.5c0,0-.2.1-.3.2-.1,0-.3,0-.4,0ZM304,211.2c.2,0,.3,0,.3-.2,0,0,0-.3,0-.5h0c0-.3,0-.5-.2-.6,0,0-.2-.1-.4-.1-.3,0-.4.3-.4.7s0,.4.2.5c0,.1.2.1.4.1ZM303.8,211.7c-.3,0-.5,0-.7-.2-.2-.2-.3-.5-.3-.8s0-.7.1-.9c.1-.2.3-.3.6-.4s.3,0,.4,0c.1,0,.2.1.3.2h0s0-.3,0-.3h.5c0,0,.3,3.2.3,3.2h-.6c0,0,0-.9,0-.9,0,0,0-.2,0-.3h0c0,.1-.1.2-.2.3-.1,0-.2.1-.4.1ZM307.3,211.3v-.3c-.1,0-.1,0-.1,0,0,.1-.1.2-.3.3-.1,0-.2.1-.4.1-.3,0-.5,0-.6-.2-.1-.1-.2-.3-.3-.6v-1.5c-.1,0,.5,0,.5,0v1.3c.1.2.2.3.3.4,0,0,.2.1.3,0s.3,0,.4-.2c0-.1,0-.3,0-.6v-1.1c-.1,0,.5,0,.5,0l.2,2.2h-.5ZM308.1,208.4c0-.2,0-.3.3-.3s.3,0,.4.3,0,.2,0,.2c0,0-.1,0-.2.1-.2,0-.3,0-.4-.3ZM309,211.1h-.6c0,0-.2-2.2-.2-2.2h.6c0,0,.2,2.2.2,2.2ZM310.7,208.7c0,0,.2,0,.2,0v.6s-.1,0-.2,0c-.2,0-.3,0-.4.2,0,.1-.1.3-.1.4v1.1c.1,0-.5,0-.5,0l-.2-2.2h.5s.1.3.1.3h0c0-.1.1-.2.3-.3.1,0,.2-.1.4-.2ZM312.3,209c-.1,0-.2,0-.3.2,0,0,0,.2,0,.4h.9c0-.2,0-.3-.2-.4,0,0-.2-.1-.3,0ZM312.5,210.8c-.4,0-.7,0-.9-.2-.2-.2-.4-.5-.4-.8s0-.7.2-.9c.2-.2.4-.4.7-.4s.6,0,.8.2c.2.2.3.4.3.7v.3s-1.4.1-1.4.1c0,.2,0,.3.2.4.1,0,.2.1.4.1s.3,0,.4,0c.1,0,.2,0,.4-.2v.5c0,0-.2.1-.3.2-.1,0-.3,0-.4,0ZM316,210.5h-.6c0,0-.1-1.2-.1-1.2,0-.2,0-.3-.1-.4,0,0-.2-.1-.3,0s-.3,0-.3.2c0,.1,0,.3,0,.6v1.1c.1,0-.5,0-.5,0l-.2-2.2h.5s.1.2.1.2h0c0-.1.1-.2.2-.3.1,0,.2-.1.4-.1.3,0,.6,0,.7.3h0c0-.1.1-.2.2-.3.1,0,.2-.1.4-.1.3,0,.5,0,.6.1.1.1.2.3.3.6v1.5c.1,0-.5,0-.5,0v-1.3c-.1-.2-.2-.3-.2-.4,0,0-.2-.1-.3,0s-.3,0-.3.2c0,.1,0,.3,0,.5v1.1ZM318.7,208.3c-.1,0-.2,0-.3.2,0,0,0,.2,0,.4h.9c0-.2,0-.3-.2-.4,0,0-.2-.1-.3,0ZM319,210.2c-.4,0-.7,0-.9-.2-.2-.2-.4-.5-.4-.8s0-.7.2-.9c.2-.2.4-.4.7-.4s.6,0,.8.2c.2.2.3.4.3.7v.3s-1.4.1-1.4.1c0,.2,0,.3.2.4.1,0,.2.1.4.1s.3,0,.4,0c.1,0,.2,0,.4-.2v.5c0,0-.2.1-.3.2-.1,0-.3,0-.4,0ZM322.5,209.8h-.6c0,0-.1-1.2-.1-1.2,0-.2,0-.3-.1-.4,0,0-.2-.1-.3,0s-.3,0-.4.2c0,.1,0,.3,0,.6v1.1c.1,0-.5,0-.5,0l-.2-2.2h.5s.1.2.1.2h0c0-.1.1-.2.3-.3.1,0,.2-.1.4-.1.3,0,.5,0,.6.2.1.1.2.3.3.6v1.5ZM324,209.2c.1,0,.2,0,.4-.1v.5c-.1,0-.3.1-.5.2s-.4,0-.6-.1c-.1-.1-.2-.3-.2-.5v-1.1c-.1,0-.4,0-.4,0v-.3s.3-.2.3-.2v-.5c.1,0,.5,0,.5,0v.5s.7,0,.7,0v.5s-.6,0-.6,0v1.1c.1,0,.1.1.2.2,0,0,.1,0,.2,0ZM326.4,208.7c0,.2,0,.4-.2.5-.1.1-.4.2-.7.3s-.3,0-.4,0c-.1,0-.2,0-.3,0v-.5c0,0,.2,0,.3,0,.1,0,.3,0,.4,0,.2,0,.3,0,.3-.2s0,0,0-.1c0,0,0,0-.2,0,0,0-.2,0-.3-.1-.2,0-.3-.1-.4-.2,0,0-.2-.1-.2-.2,0,0,0-.2,0-.3,0-.2,0-.4.2-.5.1-.1.4-.2.6-.2s.5,0,.8,0v.5c-.3,0-.4,0-.5,0-.1,0-.2,0-.3,0-.2,0-.3,0-.3.2s0,0,.1.1c0,0,.2,0,.4.1.2,0,.3.1.4.2,0,0,.2.1.2.2,0,0,0,.2,0,.3ZM329.7,208.3c0,.3,0,.5-.2.7-.2.2-.4.3-.8.3s-.6,0-.8,0v-.6c.1,0,.3.1.5.1.1,0,.3,0,.4,0s.2,0,.3-.1c0,0,0-.1,0-.2s0-.1,0-.1c0,0,0,0-.2-.1,0,0-.2,0-.4-.2-.2,0-.3-.1-.4-.2,0,0-.2-.2-.2-.2,0,0-.1-.2-.1-.4,0-.3,0-.5.2-.6.2-.2.4-.3.7-.3s.3,0,.4,0c.1,0,.3,0,.5.1l-.2.5c-.2,0-.3,0-.4,0-.1,0-.2,0-.3,0s-.2,0-.3.1c0,0,0,.1,0,.2s0,.1,0,.1c0,0,0,0,.1.1,0,0,.2,0,.4.2.3.1.5.2.6.3.1.1.2.3.2.5ZM331.8,208.9v-.3c-.1,0-.1,0-.1,0,0,.1-.1.2-.3.3-.1,0-.2.1-.4.1-.3,0-.5,0-.6-.2-.1-.1-.2-.3-.3-.6v-1.5c-.1,0,.5,0,.5,0v1.3c.1.2.2.3.3.4,0,0,.2.1.3,0s.3,0,.4-.2c0-.1,0-.3,0-.6v-1.1c-.1,0,.5,0,.5,0l.2,2.2h-.5ZM334,206.4c.3,0,.5,0,.7.2.2.2.3.5.3.8s0,.7-.1.9c-.1.2-.3.3-.6.4s-.5,0-.6-.2h0s0,.3,0,.3h-.5s-.3-3.1-.3-3.1h.6c0,0,0,.7,0,.7,0,0,0,.2,0,.4h0c.1-.2.3-.4.6-.4ZM333.8,206.9c-.2,0-.3,0-.3.2,0,0,0,.3,0,.5h0c0,.3,0,.5.2.6,0,0,.2.1.4.1s.2,0,.3-.2c0-.1,0-.3,0-.5s0-.4-.2-.5c0-.1-.2-.1-.3-.1ZM337.6,208.3h-.6c0,0-.1-1.2-.1-1.2,0-.2,0-.3-.1-.4,0,0-.2-.1-.3,0s-.3,0-.3.2c0,.1,0,.3,0,.6v1.1c.1,0-.5,0-.5,0l-.2-2.2h.5s.1.2.1.2h0c0-.1.1-.2.2-.3.1,0,.2-.1.4-.1.3,0,.6,0,.7.3h0c0-.1.1-.2.2-.3.1,0,.2-.1.4-.1.3,0,.5,0,.6.1.1.1.2.3.3.6v1.5c.1,0-.5,0-.5,0v-1.3c-.1-.2-.2-.3-.2-.4,0,0-.2-.1-.3,0s-.3,0-.3.2c0,.1,0,.3,0,.5v1.1ZM339.3,205.3c0-.2,0-.3.3-.3s.3,0,.4.3,0,.2,0,.2c0,0-.1,0-.2.1-.2,0-.3,0-.4-.3ZM340.2,208h-.6c0,0-.2-2.2-.2-2.2h.6c0,0,.2,2.2.2,2.2ZM341.7,207.4c.1,0,.2,0,.4-.1v.5c-.1,0-.3.1-.5.2s-.4,0-.6-.1c-.1-.1-.2-.3-.2-.5v-1.1c-.1,0-.4,0-.4,0v-.3s.3-.2.3-.2v-.5c.1,0,.5,0,.5,0v.5s.7,0,.7,0v.5s-.6,0-.6,0v1.1c.1,0,.1.1.2.2,0,0,.1,0,.2,0ZM343.5,207.3c.1,0,.2,0,.4-.1v.5c-.1,0-.3.1-.5.2s-.4,0-.6-.1c-.1-.1-.2-.3-.2-.5v-1.1c-.1,0-.4,0-.4,0v-.3s.3-.2.3-.2v-.5c.1,0,.5,0,.5,0v.5s.7,0,.7,0v.5s-.6,0-.6,0v1.1c.1,0,.1.1.2.2,0,0,.1,0,.2,0ZM345.2,205.7c-.1,0-.2,0-.3.2,0,0,0,.2,0,.4h.9c0-.2,0-.3-.2-.4,0,0-.2-.1-.3,0ZM345.4,207.6c-.4,0-.7,0-.9-.2-.2-.2-.4-.5-.4-.8s0-.7.2-.9c.2-.2.4-.4.7-.4s.6,0,.8.2c.2.2.3.4.3.7v.3s-1.4.1-1.4.1c0,.2,0,.3.2.4.1,0,.2.1.4.1s.3,0,.4,0c.1,0,.2,0,.4-.2v.5c0,0-.2.1-.3.2-.1,0-.3,0-.4,0ZM347.6,207.4c-.3,0-.5,0-.7-.2-.2-.2-.3-.5-.3-.8s0-.7.1-.9c.1-.2.3-.3.6-.4s.5,0,.7.3h0c0-.2,0-.3,0-.4v-.7c0,0,.5,0,.5,0l.3,3.1h-.5s-.1-.2-.1-.2h0c-.1.2-.3.4-.6.4ZM347.7,206.8c.2,0,.3,0,.3-.2,0,0,0-.3,0-.5h0c0-.3,0-.5-.2-.6,0,0-.2-.1-.4-.1s-.2,0-.3.2c0,.1,0,.3,0,.5s0,.4.2.5c0,.1.2.1.3.1Z" style="fill:#6b7280;"/><path d="M292.5,220.5h0c1.5-.1,2.8.9,2.9,2.4h0c.1,1.5-.9,2.8-2.4,2.9h0c-1.5.1-2.8-.9-2.9-2.4h0c-.1-1.5.9-2.8,2.4-2.9Z" style="fill:#fff;"/><path d="M292.5,220.5h0c1.5-.1,2.8.9,2.9,2.4h0c.1,1.5-.9,2.8-2.4,2.9h0c-1.5.1-2.8-.9-2.9-2.4h0c-.1-1.5.9-2.8,2.4-2.9Z" style="fill:none; stroke:#22c55e; stroke-width:.6px;"/><path d="M292.5,224s0,0-.1,0l-.8-.6s0,0,0,0c0,0,0,0,0,0s0,0,0,0c0,0,0,0,0,0,0,0,0,0,.1,0s0,0,.1,0l.7.5,1.2-1.5s0,0,.1,0,0,0,.1,0c0,0,0,0,0,.1s0,0,0,.1l-1.3,1.6s0,0-.1,0Z" style="fill:#fff;"/><path d="M302,223.7h-.7c0,0-.5-1.4-.5-1.4,0,0,0-.2-.1-.3,0-.2,0-.3,0-.3,0,0,0,.2,0,.4,0,.2,0,.3,0,.3l-.2,1.6h-.7c0,0-1-2.8-1-2.8h.6c0,0,.5,1.5.5,1.5,0,.3.2.5.2.8,0,0,0-.2,0-.4,0-.2,0-.3,0-.4l.3-1.7h.6c0,0,.6,1.5.6,1.5,0,0,0,.2.1.3s0,.3.1.4c0-.1,0-.2,0-.4,0-.2,0-.3,0-.4l.2-1.6h.6c0,0-.5,2.9-.5,2.9ZM303.5,222.4c0,.2,0,.4.2.5,0,.1.2.2.4.1s.3,0,.3-.2c0-.1,0-.3,0-.5s0-.4-.2-.5c0-.1-.2-.1-.4-.1s-.3,0-.3.2c0,.1,0,.3,0,.5ZM305,222.3c0,.4,0,.7-.2.9-.2.2-.4.4-.8.4s-.4,0-.6,0c-.2,0-.3-.2-.4-.4-.1-.2-.2-.4-.2-.6,0-.4,0-.7.2-.9.2-.2.4-.4.8-.4s.4,0,.6,0c.2,0,.3.2.4.4.1.2.2.4.2.6ZM306.7,220.9c0,0,.2,0,.2,0v.6s-.1,0-.2,0c-.2,0-.3,0-.4.2,0,.1-.1.3-.1.4v1.1c.1,0-.5,0-.5,0l-.2-2.2h.5s.1.3.1.3h0c0-.1.1-.2.3-.3.1,0,.2-.1.4-.2ZM308,221.9l.2-.4.6-.7h.7c0,0-.8,1-.8,1l1.1,1.2h-.7c0,0-.7-.8-.7-.8l-.2.2v.7c0,0-.5,0-.5,0l-.3-3.1h.6c0,0,.1,1.3.1,1.3v.5s0,0,0,0ZM311.2,222.8l-.3-2.9h.6c0,0,.3,2.9.3,2.9h-.6ZM314.6,222.4h-.6c0,0-.1-1.2-.1-1.2,0-.2,0-.3-.1-.4,0,0-.2-.1-.3,0s-.3,0-.4.2c0,.1,0,.3,0,.6v1.1c.1,0-.5,0-.5,0l-.2-2.2h.5s.1.2.1.2h0c0-.1.1-.2.3-.3.1,0,.2-.1.4-.1.3,0,.5,0,.6.2.1.1.2.3.3.6v1.5ZM316.8,220.7h.2c.2,0,.3,0,.4-.2,0,0,.1-.2.1-.3s0-.2-.2-.3c0,0-.2,0-.4,0h-.3s0,.9,0,.9ZM318.1,220.1c0,.3,0,.6-.2.8-.2.2-.5.3-.8.3h-.3s.1,1.1.1,1.1h-.6c0,0-.3-2.9-.3-2.9h.9c.4-.1.6,0,.8,0,.2.1.3.4.3.7ZM319.9,219.6c0,0,.2,0,.2,0v.6s-.1,0-.2,0c-.2,0-.3,0-.4.2,0,.1-.1.3-.1.4v1.1c.1,0-.5,0-.5,0l-.2-2.2h.5s.1.3.1.3h0c0-.1.1-.2.3-.3.1,0,.2-.1.4-.2ZM321.1,220.7c0,.2,0,.4.2.5,0,.1.2.2.4.1s.3,0,.3-.2c0-.1,0-.3,0-.5s0-.4-.2-.5c0-.1-.2-.1-.4-.1s-.3,0-.3.2c0,.1,0,.3,0,.5ZM322.6,220.5c0,.4,0,.7-.2.9-.2.2-.4.4-.8.4s-.4,0-.6,0c-.2,0-.3-.2-.4-.4-.1-.2-.2-.4-.2-.6,0-.4,0-.7.2-.9.2-.2.4-.4.8-.4s.4,0,.6,0c.2,0,.3.2.4.4.1.2.2.4.2.6ZM325,219.1v.3s-.3.1-.3.1c0,0,.1.2.1.3,0,.2,0,.4-.2.6-.2.2-.4.2-.7.3h-.1s0,0,0,0c0,0,0,.1,0,.2,0,0,.1.1.3,0h.4c.2,0,.4,0,.6,0,.1,0,.2.2.2.4s0,.5-.3.6c-.2.2-.5.3-.9.3s-.6,0-.7,0c-.2,0-.3-.2-.3-.4s0-.3,0-.4.2-.2.4-.2c0,0-.1,0-.2-.1,0,0,0-.1,0-.2s0-.2,0-.2c0,0,.1-.1.2-.2-.1,0-.2-.1-.3-.2,0-.1-.1-.2-.1-.4,0-.2,0-.4.2-.6.1-.1.4-.2.7-.3s.1,0,.2,0c0,0,.1,0,.2,0h.8ZM323.5,221.9c0,0,0,.1.1.2,0,0,.2,0,.3,0,.2,0,.4,0,.5-.1.1,0,.2-.2.2-.3s0-.1-.1-.2c0,0-.2,0-.3,0h-.3c-.1,0-.2,0-.3.1,0,0,0,.1,0,.2ZM323.5,220c0,.1,0,.2.1.3,0,0,.2,0,.3,0s.2,0,.2-.1c0,0,0-.2,0-.3,0-.3-.2-.4-.4-.4s-.3.2-.3.4ZM326.6,218.9c0,0,.2,0,.2,0v.6s-.1,0-.2,0c-.2,0-.3,0-.4.2,0,.1-.1.3-.1.4v1.1c.1,0-.5,0-.5,0l-.2-2.2h.5s.1.3.1.3h0c0-.1.1-.2.3-.3.1,0,.2-.1.4-.2ZM328.2,219.2c-.1,0-.2,0-.3.2,0,0,0,.2,0,.4h.9c0-.2,0-.3-.2-.4,0,0-.2-.1-.3,0ZM328.4,221.1c-.4,0-.7,0-.9-.2-.2-.2-.4-.5-.4-.8s0-.7.2-.9c.2-.2.4-.4.7-.4s.6,0,.8.2c.2.2.3.4.3.7v.3s-1.4.1-1.4.1c0,.2,0,.3.2.4.1,0,.2.1.4.1s.3,0,.4,0c.1,0,.2,0,.4-.2v.5c0,0-.2.1-.3.2-.1,0-.3,0-.4,0ZM331.3,220.1c0,.2,0,.4-.2.5-.1.1-.4.2-.7.3s-.3,0-.4,0c-.1,0-.2,0-.3,0v-.5c0,0,.2,0,.3,0,.1,0,.3,0,.4,0,.2,0,.3,0,.3-.2s0,0,0-.1c0,0,0,0-.2,0,0,0-.2,0-.3-.1-.2,0-.3-.1-.4-.2,0,0-.2-.1-.2-.2,0,0,0-.2,0-.3,0-.2,0-.4.2-.5.1-.1.4-.2.6-.2s.5,0,.8,0v.5c-.3,0-.4,0-.5,0-.1,0-.2,0-.3,0-.2,0-.3,0-.3.2s0,0,.1.1c0,0,.2,0,.4.1.2,0,.3.1.4.2,0,0,.2.1.2.2,0,0,0,.2,0,.3ZM333.4,219.9c0,.2,0,.4-.2.5-.1.1-.4.2-.7.3s-.3,0-.4,0c-.1,0-.2,0-.3,0v-.5c0,0,.2,0,.3,0,.1,0,.3,0,.4,0,.2,0,.3,0,.3-.2s0,0,0-.1c0,0,0,0-.2,0,0,0-.2,0-.3-.1-.2,0-.3-.1-.4-.2,0,0-.2-.1-.2-.2,0,0,0-.2,0-.3,0-.2,0-.4.2-.5.1-.1.4-.2.6-.2s.5,0,.8,0v.5c-.3,0-.4,0-.5,0-.1,0-.2,0-.3,0-.2,0-.3,0-.3.2s0,0,.1.1c0,0,.2,0,.4.1.2,0,.3.1.4.2,0,0,.2.1.2.2,0,0,0,.2,0,.3Z" style="fill:#1f2937;"/><path d="M293.7,231.9h0c1.6-.2,3.1,1,3.2,2.6h0c.2,1.6-1,3.1-2.6,3.2h0c-1.6.2-3.1-1-3.2-2.6h0c-.2-1.6,1-3.1,2.6-3.2Z" style="fill:#f3f4f6;"/><path d="M302.1,235.5l-.3-.7h-1.1c0,.1-.1.8-.1.8h-.7c0,0,.7-3,.7-3h.8c0,0,1.3,2.8,1.3,2.8h-.7ZM301.7,234.3c-.3-.6-.4-1-.4-1,0,0,0-.1,0-.2,0,.2-.1.6-.3,1.3h.8ZM304.4,235.3c-.3,0-.5,0-.6-.2h0c0,.2,0,.3,0,.3v.9c0,0-.5,0-.5,0l-.3-3.2h.5s.1.2.1.2h0c.1-.2.3-.4.6-.4s.5,0,.7.2c.2.2.3.5.3.8s0,.5,0,.6c0,.2-.1.3-.3.4-.1.1-.3.2-.4.2ZM304,233.5c-.2,0-.3,0-.3.2,0,0,0,.3,0,.5h0c0,.3,0,.5.2.6,0,0,.2.1.4.1.3,0,.4-.3.3-.7s0-.4-.2-.5c0-.1-.2-.1-.3-.1ZM307,235.1c-.3,0-.5,0-.6-.2h0c0,.2,0,.3,0,.3v.9c0,0-.5,0-.5,0l-.3-3.2h.5s.1.2.1.2h0c.1-.2.3-.4.6-.4s.5,0,.7.2c.2.2.3.5.3.8s0,.5,0,.6c0,.2-.1.3-.3.4-.1.1-.3.2-.4.2ZM306.6,233.3c-.2,0-.3,0-.3.2,0,0,0,.3,0,.5h0c0,.3,0,.5.2.6,0,0,.2.1.4.1.3,0,.4-.3.3-.7s0-.4-.2-.5c0-.1-.2-.1-.3-.1ZM309.4,232.5c0,0,.2,0,.2,0v.6s-.1,0-.2,0c-.2,0-.3,0-.4.2,0,.1-.1.3-.1.4v1.1c.1,0-.5,0-.5,0l-.2-2.2h.5s.1.3.1.3h0c0-.1.1-.2.3-.3.1,0,.2-.1.4-.2ZM310.6,233.5c0,.2,0,.4.2.5,0,.1.2.2.4.1s.3,0,.3-.2c0-.1,0-.3,0-.5s0-.4-.2-.5c0-.1-.2-.1-.4-.1s-.3,0-.3.2c0,.1,0,.3,0,.5ZM312.1,233.4c0,.4,0,.7-.2.9-.2.2-.4.4-.8.4s-.4,0-.6,0c-.2,0-.3-.2-.4-.4-.1-.2-.2-.4-.2-.6,0-.4,0-.7.2-.9.2-.2.4-.4.8-.4s.4,0,.6,0c.2,0,.3.2.4.4.1.2.2.4.2.6ZM313.3,234.4l-1.1-2.2h.6c0,0,.6,1.2.6,1.2,0,.2.1.3.1.5h0c0-.1,0-.3,0-.5l.3-1.3h.6c0,0-.6,2.3-.6,2.3h-.6ZM315.8,232.3c-.1,0-.2,0-.3.2,0,0,0,.2,0,.4h.9c0-.2,0-.3-.2-.4,0,0-.2-.1-.3,0ZM316.1,234.2c-.4,0-.7,0-.9-.2-.2-.2-.4-.5-.4-.8s0-.7.2-.9c.2-.2.4-.4.7-.4s.6,0,.8.2c.2.2.3.4.3.7v.3s-1.4.1-1.4.1c0,.2,0,.3.2.4.1,0,.2.1.4.1s.3,0,.4,0c.1,0,.2,0,.4-.2v.5c0,0-.2.1-.3.2-.1,0-.3,0-.4,0ZM319.2,233.8h-.6c0,0-.3-2.9-.3-2.9l1.7-.2v.5c0,0-1,.1-1,.1v.8c0,0,1.1,0,1.1,0v.5c0,0-.9,0-.9,0v1.2ZM320.5,230.8c0-.2,0-.3.3-.3s.3,0,.4.3,0,.2,0,.2c0,0-.1,0-.2.1-.2,0-.3,0-.4-.3ZM321.4,233.6h-.6c0,0-.2-2.2-.2-2.2h.6c0,0,.2,2.2.2,2.2ZM324.1,233.3h-.6c0,0-.1-1.2-.1-1.2,0-.2,0-.3-.1-.4,0,0-.2-.1-.3,0s-.3,0-.4.2c0,.1,0,.3,0,.6v1.1c.1,0-.5,0-.5,0l-.2-2.2h.5s.1.2.1.2h0c0-.1.1-.2.3-.3.1,0,.2-.1.4-.1.3,0,.5,0,.6.2.1.1.2.3.3.6v1.5ZM326.2,233.1v-.3c-.1,0-.2,0-.2,0,0,.1-.2.2-.3.3-.1,0-.2,0-.4.1s-.4,0-.5-.1c-.1-.1-.2-.3-.2-.5s0-.4.2-.6c.2-.1.4-.2.7-.3h.4c0,0,0-.1,0-.1,0-.2-.2-.3-.4-.3s-.4,0-.6.2l-.2-.4c.2-.2.5-.3.8-.3s.5,0,.7.1c.2.1.3.3.3.6v1.5c.1,0-.3,0-.3,0ZM325.9,232.1h-.2c-.2,0-.3,0-.4.2,0,0-.1.2-.1.3,0,.2.1.2.3.2s.3,0,.3-.2c0,0,.1-.2,0-.3v-.2ZM327.9,233h-.6c0,0-.3-3.1-.3-3.1h.6c0,0,.3,3.1.3,3.1ZM331.9,231.1c0,.5,0,.9-.3,1.1-.2.3-.6.5-1.2.5h-.8c0,0-.3-2.8-.3-2.8h.9c.5-.1.9,0,1.2.2.3.2.5.6.5,1ZM331.3,231.1c0-.6-.4-.9-.9-.9h-.3s.2,1.9.2,1.9h.3c.6,0,.9-.4.8-1.1ZM333.4,230.6c-.1,0-.2,0-.3.2,0,0,0,.2,0,.4h.9c0-.2,0-.3-.2-.4,0,0-.2-.1-.3,0ZM333.6,232.4c-.4,0-.7,0-.9-.2-.2-.2-.4-.5-.4-.8s0-.7.2-.9c.2-.2.4-.4.7-.4s.6,0,.8.2c.2.2.3.4.3.7v.3s-1.4.1-1.4.1c0,.2,0,.3.2.4.1,0,.2.1.4.1s.3,0,.4,0c.1,0,.2,0,.4-.2v.5c0,0-.2.1-.3.2-.1,0-.3,0-.4,0ZM335.7,232.2h-.6c0,0-.3-3.1-.3-3.1h.6c0,0,.3,3.1.3,3.1ZM336,229.3c0-.2,0-.3.3-.3s.3,0,.4.3,0,.2,0,.2c0,0-.1,0-.2.1-.2,0-.3,0-.4-.3ZM336.9,232.1h-.6c0,0-.2-2.2-.2-2.2h.6c0,0,.2,2.2.2,2.2ZM338.1,232l-1.1-2.2h.6c0,0,.6,1.2.6,1.2,0,.2.1.3.1.5h0c0-.1,0-.3,0-.5l.3-1.3h.6c0,0-.6,2.3-.6,2.3h-.6ZM340.6,229.8c-.1,0-.2,0-.3.2,0,0,0,.2,0,.4h.9c0-.2,0-.3-.2-.4,0,0-.2-.1-.3,0ZM340.9,231.7c-.4,0-.7,0-.9-.2-.2-.2-.4-.5-.4-.8s0-.7.2-.9c.2-.2.4-.4.7-.4s.6,0,.8.2c.2.2.3.4.3.7v.3s-1.4.1-1.4.1c0,.2,0,.3.2.4.1,0,.2.1.4.1s.3,0,.4,0c.1,0,.2,0,.4-.2v.5c0,0-.2.1-.3.2-.1,0-.3,0-.4,0ZM343.3,229.1c0,0,.2,0,.2,0v.6s-.1,0-.2,0c-.2,0-.3,0-.4.2,0,.1-.1.3-.1.4v1.1c.1,0-.5,0-.5,0l-.2-2.2h.5s.1.3.1.3h0c0-.1.1-.2.3-.3.1,0,.2-.1.4-.2ZM343.6,229.1h.7c0,0,.5,1.2.5,1.2,0,.1,0,.2.1.4h0c0-.1,0-.3,0-.4l.3-1.3h.7c0,0-.7,2.6-.7,2.6,0,.2-.2.4-.3.6-.1.1-.3.2-.5.2s-.2,0-.3,0v-.5s.1,0,.2,0,.2,0,.3-.1c0,0,.1-.2.2-.3h0c0-.1-1.1-2.3-1.1-2.3Z" style="fill:#6b7280;"/><path d="M294.8,243.7h0c1.6-.2,3.1,1,3.2,2.6h0c.2,1.6-1,3.1-2.6,3.2h0c-1.6.2-3.1-1-3.2-2.6h0c-.2-1.6,1-3.1,2.6-3.2Z" style="fill:#f3f4f6;"/><path d="M304,245.7c0,.5,0,.9-.2,1.2-.2.3-.5.4-1,.5s-.8,0-1.1-.3c-.3-.2-.4-.6-.5-1.1s0-.9.2-1.2c.2-.3.5-.4,1-.5s.8,0,1.1.3c.3.2.4.6.5,1.1ZM301.9,245.9c0,.3.1.6.3.7.1.2.3.2.6.2.5,0,.7-.4.6-1.1s-.3-1-.8-.9-.4.1-.5.3c-.1.2-.1.4-.1.8ZM305.8,244.7c0,0,.2,0,.2,0v.6s-.1,0-.2,0c-.2,0-.3,0-.4.2,0,.1-.1.3-.1.4v1.1c.1,0-.5,0-.5,0l-.2-2.2h.5s.1.3.1.3h0c0-.1.1-.2.3-.3.1,0,.2-.1.4-.2ZM307.3,246.9c-.3,0-.5,0-.7-.2-.2-.2-.3-.5-.3-.8s0-.7.1-.9c.1-.2.3-.3.6-.4s.5,0,.7.3h0c0-.2,0-.3,0-.4v-.7c0,0,.5,0,.5,0l.3,3.1h-.5s-.1-.2-.1-.2h0c-.1.2-.3.4-.6.4ZM307.5,246.4c.2,0,.3,0,.3-.2,0,0,0-.3,0-.5h0c0-.3,0-.5-.2-.6,0,0-.2-.1-.4-.1s-.2,0-.3.2c0,.1,0,.3,0,.5s0,.4.2.5c0,.1.2.1.3.1ZM309.9,244.7c-.1,0-.2,0-.3.2,0,0,0,.2,0,.4h.9c0-.2,0-.3-.2-.4,0,0-.2-.1-.3,0ZM310.2,246.6c-.4,0-.7,0-.9-.2-.2-.2-.4-.5-.4-.8s0-.7.2-.9c.2-.2.4-.4.7-.4s.6,0,.8.2c.2.2.3.4.3.7v.3s-1.4.1-1.4.1c0,.2,0,.3.2.4.1,0,.2.1.4.1s.3,0,.4,0c.1,0,.2,0,.4-.2v.5c0,0-.2.1-.3.2-.1,0-.3,0-.4,0ZM312.6,244c0,0,.2,0,.2,0v.6s-.1,0-.2,0c-.2,0-.3,0-.4.2,0,.1-.1.3-.1.4v1.1c.1,0-.5,0-.5,0l-.2-2.2h.5s.1.3.1.3h0c0-.1.1-.2.3-.3.1,0,.2-.1.4-.2ZM315.6,243.6c-.2,0-.4.1-.5.3-.1.2-.2.4-.1.8,0,.7.3,1,.8.9s.5,0,.7-.2v.5c-.2.1-.4.2-.7.2-.4,0-.8,0-1-.3-.3-.2-.4-.6-.4-1.1s0-.6,0-.8c0-.2.2-.4.4-.6.2-.1.4-.2.7-.3s.6,0,.9.1l-.2.5c-.1,0-.2,0-.3-.1-.1,0-.2,0-.3,0ZM317.5,244.7c0,.2,0,.4.2.5,0,.1.2.2.4.1s.3,0,.3-.2c0-.1,0-.3,0-.5s0-.4-.2-.5c0-.1-.2-.1-.4-.1s-.3,0-.3.2c0,.1,0,.3,0,.5ZM319.1,244.5c0,.4,0,.7-.2.9-.2.2-.4.4-.8.4s-.4,0-.6,0c-.2,0-.3-.2-.4-.4-.1-.2-.2-.4-.2-.6,0-.4,0-.7.2-.9.2-.2.4-.4.8-.4s.4,0,.6,0c.2,0,.3.2.4.4.1.2.2.4.2.6ZM321.7,245.4h-.6c0,0-.1-1.2-.1-1.2,0-.2,0-.3-.1-.4,0,0-.2-.1-.3,0s-.3,0-.3.2c0,.1,0,.3,0,.6v1.1c.1,0-.5,0-.5,0l-.2-2.2h.5s.1.2.1.2h0c0-.1.1-.2.2-.3.1,0,.2-.1.4-.1.3,0,.6,0,.7.3h0c0-.1.1-.2.2-.3.1,0,.2-.1.4-.1.3,0,.5,0,.6.1.1.1.2.3.3.6v1.5c.1,0-.5,0-.5,0v-1.3c-.1-.2-.2-.3-.2-.4,0,0-.2-.1-.3,0s-.3,0-.3.2c0,.1,0,.3,0,.5v1.1ZM325,245.1c-.3,0-.5,0-.6-.2h0c0,.2,0,.3,0,.3v.9c0,0-.5,0-.5,0l-.3-3.2h.5s.1.2.1.2h0c.1-.2.3-.4.6-.4s.5,0,.7.2c.2.2.3.5.3.8s0,.5,0,.6c0,.2-.1.3-.3.4-.1.1-.3.2-.4.2ZM324.6,243.3c-.2,0-.3,0-.3.2,0,0,0,.3,0,.5h0c0,.3,0,.5.2.6,0,0,.2.1.4.1.3,0,.4-.3.3-.7s0-.4-.2-.5c0-.1-.2-.1-.3-.1ZM327,244.9h-.6c0,0-.3-3.1-.3-3.1h.6c0,0,.3,3.1.3,3.1ZM328.3,242.9c-.1,0-.2,0-.3.2,0,0,0,.2,0,.4h.9c0-.2,0-.3-.2-.4,0,0-.2-.1-.3,0ZM328.6,244.8c-.4,0-.7,0-.9-.2-.2-.2-.4-.5-.4-.8s0-.7.2-.9c.2-.2.4-.4.7-.4s.6,0,.8.2c.2.2.3.4.3.7v.3s-1.4.1-1.4.1c0,.2,0,.3.2.4.1,0,.2.1.4.1s.3,0,.4,0c.1,0,.2,0,.4-.2v.5c0,0-.2.1-.3.2-.1,0-.3,0-.4,0ZM330.9,244.1c.1,0,.2,0,.4-.1v.5c-.1,0-.3.1-.5.2s-.4,0-.6-.1c-.1-.1-.2-.3-.2-.5v-1.1c-.1,0-.4,0-.4,0v-.3s.3-.2.3-.2v-.5c.1,0,.5,0,.5,0v.5s.7,0,.7,0v.5s-.6,0-.6,0v1.1c.1,0,.1.1.2.2,0,0,.1,0,.2,0ZM332.6,242.5c-.1,0-.2,0-.3.2,0,0,0,.2,0,.4h.9c0-.2,0-.3-.2-.4,0,0-.2-.1-.3,0ZM332.8,244.4c-.4,0-.7,0-.9-.2-.2-.2-.4-.5-.4-.8s0-.7.2-.9c.2-.2.4-.4.7-.4s.6,0,.8.2c.2.2.3.4.3.7v.3s-1.4.1-1.4.1c0,.2,0,.3.2.4.1,0,.2.1.4.1s.3,0,.4,0c.1,0,.2,0,.4-.2v.5c0,0-.2.1-.3.2-.1,0-.3,0-.4,0ZM335,244.2c-.3,0-.5,0-.7-.2-.2-.2-.3-.5-.3-.8s0-.7.1-.9c.1-.2.3-.3.6-.4s.5,0,.7.3h0c0-.2,0-.3,0-.4v-.7c0,0,.5,0,.5,0l.3,3.1h-.5s-.1-.2-.1-.2h0c-.1.2-.3.4-.6.4ZM335.1,243.6c.2,0,.3,0,.3-.2,0,0,0-.3,0-.5h0c0-.3,0-.5-.2-.6,0,0-.2-.1-.4-.1s-.2,0-.3.2c0,.1,0,.3,0,.5s0,.4.2.5c0,.1.2.1.3.1Z" style="fill:#6b7280;"/><path d="M290.7,202.1l.6,6.5M291.9,214l.6,6.5" style="fill:none; stroke:#22c55e; stroke-width:.6px;"/></g><g style="filter:url(#drop-shadow-3);"><path d="M349.5,316.5l-5.4,34.2c-.3,1.9-2.1,3.2-4,2.9l-57.2-9.1c-1.9-.3-3.2-2.1-2.9-4l5.4-34.2c.3-1.9,2.1-3.2,4-2.9l57.2,9.1c1.9.3,3.2,2.1,2.9,4Z" style="fill:#fff;"/><path d="M295.7,312.8c-1.4-.2-2.3-1.5-2.1-2.8s1.5-2.3,2.8-2.1,2.3,1.5,2.1,2.8c-.2,1.4-1.5,2.3-2.8,2.1ZM296.4,308.4c-1-.2-2,.5-2.2,1.6s.5,2,1.6,2.2,2-.5,2.2-1.6h0c.2-1-.5-2-1.6-2.2Z" style="fill:#1d2327;"/><path d="M337.2,319.3c-1.4-.2-2.3-1.5-2.1-2.8s1.5-2.3,2.8-2.1,2.3,1.5,2.1,2.8c-.2,1.4-1.5,2.3-2.8,2.1ZM337.9,315c-1-.2-2,.5-2.2,1.6s.5,2,1.6,2.2,2-.5,2.2-1.6h0c.2-1-.5-2-1.6-2.2Z" style="fill:#1d2327;"/><path d="M299.1,328.6l-10.6-1.7c-.9-.1-1.6-1-1.4-1.9l1-6.3c.1-.9,1-1.6,1.9-1.4l10.6,1.7c.9.1,1.6,1,1.4,1.9l-1,6.3c-.1.9-1,1.6-1.9,1.4Z" style="fill:#f1f5f9;"/><path d="M319.5,331.8l-10.6-1.7c-.9-.1-1.6-1-1.4-1.9l1-6.3c.1-.9,1-1.6,1.9-1.4l10.6,1.7c.9.1,1.6,1,1.4,1.9l-1,6.3c-.1.9-1,1.6-1.9,1.4Z" style="fill:#f1f5f9;"/><path d="M330.9,323.9c-.8-.1-1.6.4-1.7,1.2l-1,6.3c-.1.8.4,1.6,1.2,1.7l10.6,1.7c.8.1,1.6-.4,1.7-1.2l1-6.3c.1-.8-.4-1.6-1.2-1.7l-10.6-1.7Z" style="fill:#f1f5f9;"/><path d="M297.3,341.2l-10.6-1.7c-.9-.1-1.6-1-1.4-1.9l1-6.3c.1-.9,1-1.6,1.9-1.4l10.6,1.7c.9.1,1.6,1,1.4,1.9l-1,6.3c-.1.9-1,1.6-1.9,1.4Z" style="fill:#f1f5f9;"/><path d="M317.8,344.4l-10.6-1.7c-.9-.1-1.6-1-1.4-1.9l1-6.3c.1-.9,1-1.6,1.9-1.4l10.6,1.7c.9.1,1.6,1,1.4,1.9l-1,6.3c-.1.9-1,1.6-1.9,1.4Z" style="fill:#f1f5f9;"/><path d="M338.2,347.7l-10.6-1.7c-.9-.1-1.6-1-1.4-1.9l1-6.3c.1-.9,1-1.6,1.9-1.4l10.6,1.7c.9.1,1.6,1,1.4,1.9l-1,6.3c-.1.9-1,1.6-1.9,1.4Z" style="fill:#f1f5f9;"/><path d="M296.1,311c-.4,0-.6-.4-.6-.8l1.6-9.8c0-.3.3-.6.7-.6s.8.4.7.8l-1.6,9.8c0,.4-.4.6-.8.6Z" style="fill:#a3b0c2;"/><path d="M337.5,317.6c-.4,0-.6-.4-.6-.8l1.6-9.8c0-.3.3-.6.7-.6s.8.4.7.8l-1.6,9.8c0,.4-.4.6-.8.6Z" style="fill:#a3b0c2;"/><path id="b3a0cc8c-ec19-4bca-9f18-6cf478ced8d1-73" d="M312.9,341.1c-.3,0-.6-.2-.8-.4h0s-2.7-2.8-2.7-2.8c-.5-.5-.5-1.4,0-1.9.5-.5,1.4-.5,1.9,0l1.7,1.8,5.6-5.3c.5-.5,1.4-.5,1.9,0h0s0,0,0,0h0c.5.5.5,1.4,0,1.9l-6.6,6.2c-.3.3-.7.4-1.2.4h0Z" style="fill:#00d263;"/></g><g style="filter:url(#drop-shadow-4);"><path d="M98.9,207.9c-2,6.1-6.2,10.7-11.4,13.4-5.2,2.7-11.5,3.4-17.6,1.4-12.1-3.9-18.8-16.9-14.9-29,3.9-12.1,16.9-18.8,29-14.9,12.1,3.9,18.8,16.9,14.9,29Z" style="fill:#06f;"/><path d="M84.7,187l-12.9,1.2c-2.5.2-4.3,2.3-4.5,4.7h-.2c-2.7.3-4.7,2.7-4.5,5.4l.8,8.1c.3,2.6,2.5,4.5,5.1,4.5v1c.2,1.1.9,1.9,1.9,2.2.3.1.7.1,1,0,.7,0,1.3-.4,1.8-.9l2.5-3.1,6-.6c2.5-.2,4.4-2.3,4.5-4.7h.2c2.7-.3,4.7-2.7,4.4-5.4l-.8-8.1c-.3-2.7-2.7-4.7-5.4-4.4ZM83.7,204.5c.1,1.3-.8,2.5-2.2,2.6l-6.5.6c-.3,0-.6.2-.9.5l-2.9,3.5h-.1s-.2-2.3-.2-2.3c0-.7-.7-1.2-1.4-1.1h-.9c-1.3.2-2.5-.8-2.7-2.1l-.8-8.1c-.1-1.3.9-2.5,2.2-2.6l12.9-1.2c1.3-.1,2.5.8,2.6,2.2l.8,8.1ZM88.4,199.8c.1,1.3-.8,2.5-2.2,2.6h-.1s-.6-6.2-.6-6.2c-.3-2.7-2.7-4.7-5.4-4.4l-10.1,1c.2-1,1.1-1.8,2.1-1.9l12.9-1.2c1.3-.1,2.5.8,2.6,2.2l.8,8.1Z" style="fill:#fff;"/></g><g style="filter:url(#drop-shadow-5);"><circle id="b1bf23b1-fd72-4a0f-8358-88f260cf5936" cx="81" cy="318.6" r="25.3" style="fill:#00d263;"/><path d="M81,348.2c-2.4,0-4-1.7-5.3-3.1-.4-.5-1.2-1.2-1.5-1.4-.3,0-1.3.3-2,.5-1.8.5-4,1.2-6,0-2-1.2-2.6-3.4-3-5.3-.2-.6-.4-1.7-.6-2-.2-.2-1.3-.4-1.9-.6-1.8-.4-4.1-1-5.3-3-1.2-2-.5-4.3,0-6.1.2-.6.5-1.7.5-2-.1-.2-.9-1-1.3-1.4-1.4-1.3-3.1-2.9-3.1-5.3s1.7-4,3.1-5.3c.5-.4,1.2-1.2,1.4-1.5,0-.3-.3-1.3-.5-2-.5-1.8-1.2-4,0-6,1.2-2,3.4-2.6,5.3-3,.6-.2,1.7-.4,2-.6.2-.2.4-1.3.6-1.9.4-1.8,1-4.1,3-5.3,2-1.2,4.3-.5,6.1,0,.6.2,1.7.5,2,.5.2-.1,1-.9,1.4-1.3,1.3-1.4,2.9-3.1,5.3-3.1s4,1.7,5.3,3.1c.4.5,1.2,1.2,1.5,1.4.3,0,1.4-.3,2-.5,1.8-.5,4-1.2,6,0,2,1.2,2.6,3.4,3,5.3.2.6.4,1.7.6,2,.2.2,1.3.4,1.9.6,1.8.4,4.1,1,5.3,3,1.2,2,.5,4.3,0,6.1-.2.6-.5,1.7-.5,2,.1.2.9,1,1.3,1.4,1.4,1.3,3.1,2.9,3.1,5.3s-1.7,4-3.1,5.3c-.5.4-1.2,1.2-1.4,1.5,0,.3.3,1.4.5,2,.5,1.8,1.2,4,0,6-1.2,2-3.4,2.6-5.3,3-.6.2-1.7.4-2,.6-.2.2-.4,1.3-.6,1.9-.4,1.8-1,4.1-3,5.3-2,1.2-4.3.5-6.1,0-.6-.2-1.7-.5-2-.5-.2.1-1,.9-1.4,1.3-1.3,1.4-2.9,3.1-5.3,3.1ZM74.2,338.3c.5,0,.9,0,1.4.2,1.7.4,2.9,1.7,3.9,2.9.4.4,1,1.1,1.4,1.3.4-.3,1-.9,1.4-1.3,1.1-1.1,2.3-2.4,3.9-2.9,1.7-.5,3.4,0,4.9.5.5.2,1.3.4,1.8.5.2-.4.4-1.3.5-1.8.4-1.5.8-3.3,2-4.5,1.2-1.3,3-1.7,4.5-2,.5-.1,1.3-.3,1.8-.5,0-.5-.3-1.2-.4-1.7-.5-1.5-1-3.2-.5-5,.4-1.7,1.7-2.9,2.9-4,.4-.4,1.1-1,1.3-1.4-.3-.4-.9-1-1.3-1.4-1.1-1.1-2.4-2.3-2.9-4-.5-1.7,0-3.4.5-4.9.2-.5.4-1.3.5-1.8-.4-.2-1.3-.4-1.8-.5-1.5-.4-3.3-.8-4.5-2-1.3-1.2-1.7-3-2-4.5-.1-.5-.3-1.3-.5-1.8-.5,0-1.2.3-1.7.4-1.5.5-3.2,1-5,.5-1.7-.4-2.9-1.7-4-2.9-.4-.4-1-1.1-1.4-1.3-.4.3-1,.9-1.4,1.3-1.1,1.1-2.3,2.4-3.9,2.9-1.7.5-3.4,0-4.9-.5-.5-.2-1.3-.4-1.8-.4-.2.4-.4,1.3-.5,1.8-.4,1.5-.8,3.3-2,4.5-1.3,1.3-3,1.7-4.5,2-.5.1-1.3.3-1.8.5,0,.5.3,1.2.4,1.7.5,1.5,1,3.2.5,5-.4,1.7-1.7,2.9-2.9,3.9-.4.4-1.1,1-1.3,1.4.3.4.9,1,1.3,1.4,1.1,1.1,2.4,2.3,2.9,3.9.5,1.7,0,3.4-.5,4.9-.2.5-.4,1.3-.5,1.8.4.2,1.3.4,1.8.5,1.5.4,3.3.8,4.5,2s1.7,3,2,4.5c.1.5.3,1.3.5,1.8.5,0,1.2-.3,1.7-.4,1.1-.3,2.3-.7,3.5-.7ZM105.2,318.8h0s0,0,0,0Z" style="fill:#00d263;"/><path d="M77.4,328.5c-.7,0-1.4-.3-1.9-.8l-7.2-7.2c-1-1-1-2.8,0-3.8,1-1,2.7-1,3.8,0l5.3,5.3,12.4-12.4c1-1,2.7-1,3.8,0,1,1,1,2.8,0,3.8l-14.3,14.3c-.5.5-1.2.8-1.9.8Z" style="fill:#fff;"/></g><g style="filter:url(#drop-shadow-6);"><path d="M331.4,103.9l-31.6,6.5c-1.3.3-2.6-.6-2.9-1.9l-7.1-34.4c-.3-1.3.6-2.6,1.9-2.9l31.6-6.5c1.3-.3,2.6.6,2.9,1.9l7.1,34.4c.3,1.3-.6,2.6-1.9,2.9Z" style="fill:#fff;"/><path d="M312.5,75.2l-15.6,3.2c-.9.2-1.7-.4-1.9-1.2-.2-.9.4-1.7,1.2-1.9h0s15.6-3.2,15.6-3.2c.9-.2,1.7.4,1.9,1.2.2.9-.4,1.7-1.2,1.9Z" style="fill:#f1f5f9;"/><path d="M322.8,81.3l-24.2,5c-.9.2-1.9-.4-2.1-1.4-.2-.9.4-1.9,1.4-2.1h0s24.2-5,24.2-5c.9-.2,1.9.4,2.1,1.4.2.9-.4,1.9-1.4,2.1Z" style="fill:#f1f5f9;"/><path d="M324,87.3l-24.2,5c-.9.2-1.9-.4-2.1-1.4s.4-1.9,1.4-2.1l24.2-5c.9-.2,1.9.4,2.1,1.4s-.4,1.9-1.4,2.1Z" style="fill:#f1f5f9;"/><path d="M325.2,93.3l-24.2,5c-.9.2-1.9-.4-2.1-1.4s.4-1.9,1.4-2.1l24.2-5c.9-.2,1.9.4,2.1,1.4s-.4,1.9-1.4,2.1Z" style="fill:#fff;"/><path d="M336.5,114.2l-31.8-5.4c-1.3-.2-2.2-1.5-2-2.8l5.9-34.6c.2-1.3,1.5-2.2,2.8-2l31.8,5.4c1.3.2,2.2,1.5,2,2.8l-5.9,34.6c-.2,1.3-1.5,2.2-2.8,2Z" style="fill:#fff;"/><path d="M329.3,80.6l-15.7-2.7c-.9-.1-1.5-1-1.3-1.8s1-1.5,1.8-1.3h0l15.7,2.7c.9.1,1.5,1,1.3,1.8-.1.9-1,1.4-1.8,1.3h0Z" style="fill:#f1f5f9;"/><path d="M336.7,90.1l-24.3-4.2c-.9-.2-1.6-1.1-1.4-2,.2-.9,1.1-1.6,2-1.4l24.3,4.2c.9.2,1.6,1.1,1.4,2-.2.9-1.1,1.6-2,1.4h0Z" style="fill:#f1f5f9;"/><path d="M335.6,96.1l-24.3-4.2c-.9-.2-1.6-1.1-1.4-2,.2-.9,1.1-1.6,2-1.4l24.3,4.2c.9.2,1.6,1.1,1.4,2-.2.9-1.1,1.6-2,1.4Z" style="fill:#f1f5f9;"/><path d="M334.6,102.1l-24.3-4.2c-.9-.2-1.6-1.1-1.4-2,.2-.9,1.1-1.6,2-1.4l24.3,4.2c.9.2,1.6,1.1,1.4,2-.2.9-1.1,1.6-2,1.4h0Z" style="fill:#f1f5f9;"/><path d="M341.3,89.8l-34,7-7.2-7.5c-.6-.6-1.4-.8-2.1-.7l-8.1,1.7c-1.3.3-2.1,1.5-1.8,2.7h0s8.4,40.7,8.4,40.7c.3,1.3,1.5,2.1,2.7,1.8h0s49.5-10.2,49.5-10.2c1.3-.3,2.1-1.5,1.8-2.7h0s-6.4-31-6.4-31c-.3-1.3-1.5-2.1-2.7-1.8h0Z" style="fill:#ffd000;"/><path d="M290.4,134.6c-2.6,0-5.2-1-7.2-3-4-4-4-10.5,0-14.4l8.9-8.9c.6-.6,1.5-.6,2.1,0s.6,1.5,0,2.1l-8.9,8.9c-2.8,2.8-2.8,7.5,0,10.3,2.8,2.8,7.5,2.8,10.3,0l10.3-10.3c1.7-1.7,1.7-4.4,0-6.1-1.7-1.7-4.5-1.7-6.2,0l-10.3,10.3c-.3.3-.4.6-.4,1s.2.8.4,1c.6.6,1.5.6,2.1,0l8.9-8.9c.6-.6,1.5-.6,2.1,0,.6.6.6,1.5,0,2.1l-8.9,8.9c-.8.8-1.9,1.3-3.1,1.3s-2.3-.5-3.1-1.3c-.8-.8-1.3-1.9-1.3-3.1s.5-2.3,1.3-3.1l10.3-10.3c2.9-2.8,7.5-2.8,10.3,0,2.8,2.8,2.8,7.4,0,10.2l-10.3,10.3c-2,2-4.6,3-7.2,3Z" style="fill:#a3b0c2;"/></g><text transform="translate(142.9 280.7)" style="font-family:Poppins-ExtraBold, Poppins; font-weight:700;"><tspan style="font-size:26px;"><tspan x="0" y="0">Services</tspan></tspan><tspan style="font-size:18px;"><tspan x="-1" y="21.6">For SureCart</tspan></tspan></text></g></svg>