<svg width="14" height="18" viewBox="0 0 14 18" fill="none" xmlns="http://www.w3.org/2000/svg">
<path fill-rule="evenodd" clip-rule="evenodd" d="M2 0.75H12C12.3281 0.749958 12.643 0.878774 12.8769 1.10889C13.1107 1.339 13.2448 1.65194 13.25 1.97998V16.48C13.2496 16.611 13.2153 16.7399 13.1505 16.8538C13.0857 16.9677 12.9925 17.0626 12.88 17.1299C12.7645 17.1964 12.6333 17.231 12.5 17.23C12.3743 17.231 12.2504 17.2 12.14 17.1399L10.66 16.3401L9.19 17.1399C9.07934 17.1994 8.95567 17.2307 8.83002 17.2307C8.70437 17.2307 8.58069 17.1994 8.47003 17.1399L7 16.3401L5.53003 17.1399C5.41937 17.1994 5.29569 17.2307 5.17004 17.2307C5.04439 17.2307 4.92066 17.1994 4.81 17.1399L3.33002 16.3401L1.85999 17.1399C1.74534 17.2038 1.61625 17.2375 1.48499 17.2375C1.35372 17.2375 1.22463 17.2038 1.10999 17.1399C1.00002 17.0707 0.90938 16.975 0.846436 16.8613C0.783491 16.7477 0.750298 16.6199 0.75 16.49V2C0.75 1.66848 0.881729 1.35063 1.11615 1.11621C1.35057 0.88179 1.66848 0.75 2 0.75ZM11.02 14.8401L11.75 15.24V2.23999H2.25V15.24L2.97003 14.8401C3.08132 14.7823 3.20462 14.7514 3.33002 14.75C3.45571 14.7489 3.57959 14.78 3.69 14.8401L5.17004 15.6499L6.64001 14.8401C6.75067 14.7806 6.87435 14.7493 7 14.7493C7.12565 14.7493 7.24933 14.7806 7.35999 14.8401L8.83002 15.6499L10.31 14.8401C10.4191 14.7814 10.5411 14.7507 10.665 14.7507C10.7889 14.7507 10.9109 14.7814 11.02 14.8401ZM9.16431 11.1646C9.53939 10.7895 9.75007 10.2807 9.75007 9.75024C9.75139 9.48676 9.70063 9.2255 9.60072 8.98169C9.5008 8.73788 9.3537 8.51637 9.16785 8.32959C8.98201 8.14281 8.76107 7.99444 8.51777 7.89331C8.27446 7.79218 8.01356 7.74023 7.75007 7.74023H6.25007C6.11746 7.74023 5.99032 7.68752 5.89655 7.59375C5.80278 7.49998 5.75007 7.37284 5.75007 7.24023C5.75007 7.10763 5.80278 6.98049 5.89655 6.88672C5.99032 6.79295 6.11746 6.74023 6.25007 6.74023H9.00007C9.19898 6.74023 9.38975 6.66116 9.5304 6.52051C9.67105 6.37986 9.75007 6.18915 9.75007 5.99023C9.74748 5.79213 9.66763 5.60274 9.52753 5.46265C9.38744 5.32255 9.19818 5.24282 9.00007 5.24023H7.75007V4.49023C7.74748 4.29213 7.66763 4.10274 7.52753 3.96265C7.38744 3.82255 7.19818 3.74282 7.00007 3.74023C6.80116 3.74023 6.61039 3.81931 6.46973 3.95996C6.32908 4.10061 6.25007 4.29132 6.25007 4.49023V5.25024C5.71964 5.25024 5.21096 5.46086 4.83588 5.83594C4.46081 6.21101 4.25007 6.71981 4.25007 7.25024C4.25007 7.78068 4.46081 8.28948 4.83588 8.66455C5.21096 9.03962 5.71964 9.25024 6.25007 9.25024H7.75007C7.88188 9.2528 8.00756 9.3062 8.10078 9.39941C8.194 9.49263 8.24751 9.61844 8.25007 9.75024C8.25007 9.88285 8.19741 10.01 8.10365 10.1038C8.00988 10.1975 7.88268 10.2502 7.75007 10.2502H5.00007C4.80116 10.2502 4.61039 10.3293 4.46973 10.47C4.32908 10.6106 4.25007 10.8013 4.25007 11.0002C4.24872 11.0991 4.26724 11.1972 4.30445 11.2888C4.34167 11.3804 4.39683 11.4635 4.46674 11.5334C4.53666 11.6034 4.61989 11.6586 4.71149 11.6958C4.8031 11.733 4.9012 11.7516 5.00007 11.7502H6.25007V12.5002C6.24872 12.5991 6.26724 12.6972 6.30445 12.7888C6.34167 12.8804 6.39683 12.9635 6.46674 13.0334C6.53666 13.1034 6.61989 13.1586 6.71149 13.1958C6.8031 13.233 6.9012 13.2516 7.00007 13.2502C7.19898 13.2502 7.38975 13.1712 7.5304 13.0305C7.67106 12.8899 7.75007 12.6992 7.75007 12.5002V11.7502C8.2805 11.7502 8.78924 11.5396 9.16431 11.1646Z" fill="#374151"/>
</svg>
