<svg width="16" height="16" viewBox="0 0 16 16" fill="none" xmlns="http://www.w3.org/2000/svg">
<path fill-rule="evenodd" clip-rule="evenodd" d="M12.1339 10.3128L12.3358 10.6723L12.5574 11.0761C13.1484 12.1447 12.7692 13.5137 11.7153 14.1293L9.52881 15.39C9.26781 15.5377 8.93786 15.4934 8.72611 15.2817L6.63315 13.1936L6.25396 13.5728L6.04713 13.7747C5.67286 14.149 5.1213 14.2623 4.63377 14.0801C4.37769 14.8335 3.75227 15.3851 2.96433 15.5427L2.04836 15.7298C1.96792 15.7459 1.88912 15.762 1.81197 15.7777C1.70018 15.8006 1.59185 15.8227 1.48696 15.8431C1.19641 15.9071 0.920628 15.9662 0.669474 15.9957H0.6547H0.639926C0.393697 15.9662 0.216412 15.8726 0.112995 15.715C-0.0938377 15.4146 0.0243525 14.9566 0.142543 14.5085L0.149171 14.4832C0.201069 14.2853 0.251487 14.0929 0.265658 13.9323L0.447867 13.0213C0.605454 12.2383 1.15701 11.6128 1.91047 11.3568C1.72826 10.8692 1.84153 10.3177 2.2158 9.93849L2.7969 9.35738L0.708871 7.26443C0.497113 7.05267 0.452792 6.72273 0.60053 6.46172L1.86123 4.27521C2.4768 3.22134 3.84584 2.84215 4.91447 3.4331L5.67778 3.85661C7.81506 1.58145 10.7058 0.212417 13.828 0.00558367C14.4091 -0.0387377 14.9853 0.182869 15.394 0.596535C15.8077 1.0102 16.0244 1.58145 15.985 2.16748C15.7781 5.28475 14.4091 8.17548 12.1339 10.3128ZM3.00866 4.94002L2.00404 6.68333L2.94956 7.62885C3.06634 7.45675 3.18121 7.28273 3.29655 7.10799C3.36603 7.00272 3.43569 6.8972 3.50604 6.79167C3.5534 6.72035 3.60088 6.64872 3.64852 6.57686C4.02189 6.01362 4.40433 5.43671 4.80613 4.89078L4.26935 4.59038C3.82614 4.34907 3.26473 4.50666 3.00866 4.94002ZM2.20618 14.3441C2.40378 14.3048 2.58736 14.2682 2.70826 14.2426C3.13669 14.1736 3.44202 13.7944 3.42232 13.366C3.40262 12.9376 3.06775 12.5928 2.63931 12.5584H2.62454C2.20102 12.5584 1.83168 12.8637 1.74796 13.2823C1.69805 13.5194 1.6095 13.9567 1.53867 14.3064C1.52564 14.3708 1.51321 14.4322 1.50173 14.4888C1.54386 14.4801 1.58899 14.4709 1.63623 14.4614C1.74914 14.4385 1.87412 14.4132 1.99911 14.3854C2.06847 14.3715 2.13816 14.3576 2.20618 14.3441ZM3.15147 10.8791L5.10161 12.8391L5.69748 12.253L3.73749 10.2931L3.15147 10.8791ZM8.36169 13.041L9.30721 13.9865L11.0505 12.977C11.4839 12.7258 11.6415 12.1644 11.4002 11.7212L11.0948 11.1844C10.4967 11.624 9.68167 12.1636 8.92994 12.6614C8.86474 12.7045 8.80002 12.7474 8.73596 12.7898L8.36169 13.041ZM8.35007 11.4539C9.2638 10.8513 10.2762 10.1837 10.8782 9.65286C13.0893 7.74704 14.4682 4.98435 14.6602 2.07884C14.675 1.87693 14.6011 1.67994 14.4534 1.53713C14.3106 1.38939 14.1136 1.31553 13.9117 1.3303C10.4793 1.56175 7.31275 3.41833 5.43648 6.30414C5.2986 6.50604 5.00314 6.94922 4.69783 7.40718L4.69779 7.40725C4.3876 7.86515 4.07249 8.33782 3.90503 8.58901L3.90493 8.58915L7.10592 11.7852L7.40139 12.0807C7.64887 11.9141 7.92394 11.7337 8.21328 11.544L8.2435 11.5242C8.27885 11.5009 8.31438 11.4774 8.35007 11.4539ZM8.51434 5.33892C8.51434 4.31953 9.18409 3.21642 10.6516 3.20164C12.1191 3.21642 12.784 4.27521 12.784 5.33399C12.784 6.39278 12.0502 7.46634 10.6516 7.47619C9.18409 7.46142 8.51434 6.35831 8.51434 5.33892ZM10.6516 6.1564H10.6565C11.1145 6.1564 11.4789 5.78213 11.4789 5.32414C11.474 4.87108 11.1047 4.50666 10.6516 4.50666H10.6467C10.1887 4.51159 9.81936 4.88093 9.82428 5.33892C9.82921 5.79198 10.1986 6.1564 10.6516 6.1564Z" fill="#1D4ED8"/>
</svg>
