<svg width="28" height="28" viewBox="0 0 28 28" fill="none" xmlns="http://www.w3.org/2000/svg">
<path fill-rule="evenodd" clip-rule="evenodd" d="M8.89134 19.9999C10.0949 20.8259 11.5216 21.2654 12.9814 21.2599C13.4696 21.2494 13.9554 21.1891 14.4313 21.08C15.3645 20.9111 16.2551 20.559 17.0515 20.0441C17.8479 19.5292 18.5344 18.8617 19.0713 18.08C19.831 16.9612 20.2607 15.6513 20.3113 14.2999C20.3167 14.2011 20.3022 14.102 20.2687 14.0089C20.2352 13.9158 20.1833 13.8304 20.1162 13.7577C20.0491 13.685 19.968 13.6264 19.8779 13.5856C19.7877 13.5447 19.6903 13.5224 19.5914 13.5199C19.3931 13.5144 19.2005 13.5866 19.0548 13.7211C18.9091 13.8556 18.8217 14.0418 18.8113 14.2399C18.7687 15.3144 18.4219 16.3547 17.8113 17.2399C17.3894 17.8654 16.848 18.4012 16.2181 18.8165C15.5883 19.2319 14.8824 19.5184 14.1413 19.6598C13.3982 19.8036 12.6338 19.7991 11.8924 19.6464C11.151 19.4936 10.4471 19.1958 9.82133 18.7699C9.19478 18.3469 8.65834 17.8039 8.24296 17.1722C7.82758 16.5406 7.54152 15.8329 7.40135 15.09C7.25696 14.3478 7.26218 13.5842 7.41673 12.8441C7.57128 12.104 7.872 11.4023 8.30131 10.7799C8.72321 10.1544 9.26471 9.61859 9.89457 9.20325C10.5244 8.78792 11.2303 8.5014 11.9714 8.35999C12.7145 8.2156 13.4789 8.21968 14.2204 8.37244C14.9619 8.5252 15.6658 8.82351 16.2914 9.24989C16.4526 9.34876 16.6451 9.38316 16.8305 9.34608C17.016 9.30899 17.1806 9.2032 17.2914 9.04993C17.3902 8.88874 17.4245 8.69606 17.3874 8.51063C17.3503 8.3252 17.2446 8.1607 17.0914 8.04993C16.3046 7.51084 15.4183 7.13409 14.4842 6.94178C13.5501 6.74947 12.587 6.74533 11.6513 6.92982C10.7181 7.09865 9.82763 7.45079 9.03123 7.96571C8.23483 8.48062 7.5483 9.14811 7.01133 9.92982C6.47706 10.7169 6.10317 11.6016 5.91099 12.5333C5.71882 13.465 5.71212 14.4257 5.89134 15.36C6.0607 16.293 6.41297 17.1833 6.92784 17.9796C7.44271 18.776 8.11001 19.4625 8.89134 19.9999ZM12.7231 17.196C12.8144 17.2339 12.9126 17.2522 13.0114 17.25C13.1171 17.2508 13.2219 17.2289 13.3185 17.1858C13.4151 17.1427 13.5013 17.0793 13.5714 17L22.0714 8.5C22.2118 8.35937 22.2907 8.16872 22.2907 7.96997C22.2907 7.77122 22.2118 7.58057 22.0714 7.43994C21.9307 7.29949 21.7401 7.2207 21.5414 7.2207C21.3426 7.2207 21.152 7.29949 21.0114 7.43994L13.0114 15.4399L10.5414 12.97C10.4008 12.8295 10.2101 12.7507 10.0114 12.7507C9.8126 12.7507 9.62201 12.8295 9.48138 12.97C9.41063 13.0389 9.35438 13.1214 9.31598 13.2124C9.27758 13.3034 9.25781 13.4012 9.25781 13.5C9.25781 13.5988 9.27758 13.6966 9.31598 13.7876C9.35438 13.8786 9.41063 13.9611 9.48138 14.03L12.4814 17.03C12.5496 17.1016 12.6319 17.1582 12.7231 17.196Z" fill="#166534"/>
</svg>
